<svg xmlns="http://www.w3.org/2000/svg" width="98" height="98"><path fill-rule="evenodd" d="M13.758 69.178c1 0 1.278 1.373 1.278 3.45 0 2.075 3.014 4.352 5.108 5.273 0-1.382 1.942-3.334 3.638-2.956 1.697.377 3.735 3.522 1.679 5.808-1.37 1.524-3.488 1.694-6.352.51.49 1.337.49 3.305 0 5.906-.734 3.9-5.35 6.179-7.165 6.179-1.814 0-5.706-1.587-3.309-4.929 2.397-3.341 4.655-2.413 5.13-.626 2.703-1.254 3.775-6.104 1.27-9.326-3.826-4.872-2.277-9.29-1.277-9.29zm57.258-57.259c0-1 4.418-2.548 9.29 1.278 3.222 2.505 8.072 1.432 9.326-1.27-1.788-.476-2.716-2.733.626-5.13 3.342-2.398 4.928 1.495 4.928 3.309 0 1.813-2.278 6.43-6.178 7.164-2.601.49-4.57.49-5.907 0 1.185 2.864 1.015 4.982-.51 6.352-2.286 2.056-5.43.018-5.808-1.678-.377-1.696 1.574-3.638 2.956-3.638-.92-2.095-3.197-5.109-5.273-5.109-2.076 0-3.45-.278-3.45-1.278zm-42.028 5.258s-1.224-3.525 1.363-4.53c4.387-1.707 5.426 3.597 3.16 6.244-2.264 2.647-6.401 2.166-6.76 2.971 3.845 3.518 4.812 2.133 9.063 6.061 3.967 3.664 1.478 7.263 1.125 7.732l.007.007-.028.02-.021.027-.007-.007c-.481.337-4.164 2.698-7.688-1.394-3.776-4.387-2.358-5.304-5.74-9.27-.817.33-.481 4.482-3.206 6.653-2.724 2.172-7.988.948-6.13-3.376 1.095-2.55 4.576-1.205 4.576-1.205s2.914-3.045 1.561-5.87c-1.323-2.768-6.396-7.827-5.722-8.681l-.013-.013c.008-.01.022-.01.03-.018.009-.008.01-.023.02-.03l.012.013c.877-.643 5.757 4.603 8.476 6.023 2.777 1.449 5.922-1.357 5.922-1.357zm-15.202 6.826a1.5 1.5 0 110-3 1.5 1.5 0 010 3zm28.591 17.675c-1.933 0-3.5-1.343-3.5-3s1.567-3 3.5-3 3.5 1.343 3.5 3-1.567 3-3.5 3zm-16.59-28.675a1.5 1.5 0 110-3 1.5 1.5 0 010 3zm0 23.282c2.186 1.87-1.292 5.635-2.89 7.997-1.596 2.362-5.307 14.08-2.432 19.354 2.875 5.274 11.455 6.4 13.817-.722 2.361-7.121-2.196-14.073-4.669-13.32-2.473.753-4.665 1.34-4.665 5.199 0 3.858 3.888 5.06 3.888 2.53-1.36-.84-1.95-3.23 0-3.23s4.55 5.527 0 7.174c-4.55 1.647-7.43-4.435-6.684-7.174.746-2.738 2.793-6.76 7.461-6.76 4.669 0 10.386 6.952 7.179 16.303-3.207 9.352-12.922 9.618-18.714 2.676-2.188-2.623-3.236-11.665-1.871-16.965 2.247-8.733 8.646-14 9.58-13.062zm11.77-12.559c-.937-.933 4.33-7.332 13.062-9.58 5.3-1.364 14.343-.316 16.965 1.872 6.942 5.792 6.676 15.507-2.675 18.714-9.352 3.207-16.304-2.51-16.304-7.179 0-4.668 4.022-6.715 6.76-7.461 2.74-.746 8.821 2.134 7.175 6.684-1.647 4.55-7.174 1.95-7.174 0s2.39-1.36 3.23 0c2.529 0 1.328-3.888-2.53-3.888-3.859 0-4.446 2.192-5.2 4.665-.752 2.473 6.2 7.03 13.32 4.669 7.122-2.362 5.996-10.942.723-13.817-5.274-2.875-16.992.836-19.354 2.433-2.363 1.597-6.128 5.075-7.997 2.888z" opacity=".15"/></svg>