<svg width="50" height="100" xmlns="http://www.w3.org/2000/svg"><g fill="none" fill-rule="evenodd"><g transform="translate(0 50)" fill="#FFF"><path d="M24.11 14s-3.144 2.805-5.921 1.356c-2.72-1.42-7.6-6.666-8.476-6.022L9.7 9.32c-.01.007-.01.02-.019.03-.008.007-.022.007-.03.017l.013.013c-.674.854 4.4 5.913 5.722 8.681 1.353 2.826-1.561 5.87-1.561 5.87s-3.48-1.345-4.576 1.206c-1.858 4.324 3.407 5.547 6.13 3.375 2.725-2.17 2.389-6.322 3.206-6.653 3.382 3.966 1.964 4.884 5.74 9.27 3.524 4.092 7.207 1.731 7.688 1.394l.007.007.021-.027a6.12 6.12 0 01.028-.02l-.007-.007c.353-.47 2.842-4.068-1.125-7.732-4.251-3.928-5.218-2.543-9.064-6.06.36-.806 4.497-.325 6.762-2.972 2.265-2.647 1.226-7.95-3.16-6.244-2.588 1.006-1.364 4.53-1.364 4.53z" opacity=".2"/><circle opacity=".2" cx="8.909" cy="19.325" r="1.5"/><circle fill-opacity=".15" cx="20.909" cy="8.325" r="1.5"/></g><g fill="#000" opacity=".15"><path d="M24.11 14s-3.144 2.805-5.921 1.356c-2.72-1.42-7.6-6.666-8.476-6.022L9.7 9.32c-.01.007-.01.02-.019.03-.008.007-.022.007-.03.017l.013.013c-.674.854 4.4 5.913 5.722 8.681 1.353 2.826-1.561 5.87-1.561 5.87s-3.48-1.345-4.576 1.206c-1.858 4.324 3.407 5.547 6.13 3.375 2.725-2.17 2.389-6.322 3.206-6.653 3.382 3.966 1.964 4.884 5.74 9.27 3.524 4.092 7.207 1.731 7.688 1.394l.007.007.021-.027a6.12 6.12 0 01.028-.02l-.007-.007c.353-.47 2.842-4.068-1.125-7.732-4.251-3.928-5.218-2.543-9.064-6.06.36-.806 4.497-.325 6.762-2.972 2.265-2.647 1.226-7.95-3.16-6.244-2.588 1.006-1.364 4.53-1.364 4.53z"/><circle cx="8.909" cy="19.325" r="1.5"/><circle cx="20.909" cy="8.325" r="1.5"/></g></g></svg>