<svg width="85" height="85" xmlns="http://www.w3.org/2000/svg"><g fill="none" fill-rule="evenodd"><path fill="#E60012" d="M0 85h85V0H0z"/><path d="M59.973 59.536h-1.046v-2.757h1.046c.766 0 1.39.618 1.39 1.378 0 .76-.624 1.379-1.39 1.379zm-.049-3.756h-1.982v4.755h1.982c1.36 0 2.465-1.067 2.465-2.378 0-1.31-1.106-2.377-2.465-2.377zm-3.672 8.888c1.021 0 1.973.54 2.483 1.393l1.472-1.27a4.815 4.815 0 00-4.008-2.118c-2.662 0-4.828 2.148-4.828 4.789 0 2.64 2.166 4.788 4.828 4.788 1.62 0 3.107-.79 4.008-2.119l-1.472-1.269a2.905 2.905 0 01-2.483 1.393c-1.582 0-2.87-1.253-2.87-2.793 0-1.54 1.288-2.794 2.87-2.794zm-13.95.202h2.89v7.068h1.947V64.87h2.825v-1.904h-7.662v1.904zm26.067 1.632h-4.224v-3.536h-1.87v8.972h1.87V68.36h4.224v3.58h1.872v-8.973H68.37v3.536zm5.208 4.101l-.34.977-.339-.977h-.373v1.335h.24v-1.025l.352 1.013.004.012h.232l.005-.012.351-1.013v1.025h.241v-1.335h-.373zm-5.534-10.965c-.822 0-1.49-.664-1.49-1.48 0-.817.668-1.48 1.49-1.48.82 0 1.489.663 1.489 1.48 0 .816-.668 1.48-1.49 1.48zm0-4.018a2.549 2.549 0 00-2.554 2.537c0 1.4 1.146 2.538 2.554 2.538a2.548 2.548 0 002.553-2.538 2.548 2.548 0 00-2.553-2.537zm3.084 15.239h.414v1.08h.262v-1.08h.404v-.256h-1.08v.256zM45.615 59.654H42.86V58.54h2.548v-.86H42.86v-1.026h2.755v-.873l-3.728.002v4.753l3.728-.002v-.879zm8.272.88V55.78h-.973v3.123l-2.358-3.123h-.968v4.755h.972v-3.18l2.38 3.18h.947zm-31.966 0h1.067V55.78H21.92v4.755zm-4.16 5.954c-1.306-.212-2.15-.453-2.15-1.056 0-.698.94-.966 2.201-.966 1.172 0 2.348.443 2.768.618l.642-1.553c-.455-.179-1.9-.69-3.502-.69-1.954 0-4.031.945-4.031 2.696 0 1.421 1.01 2.147 3.603 2.59 1.828.311 2.835.483 2.806 1.263-.016.43-.35 1.15-2.411 1.15-1.657 0-2.825-.596-3.23-.838l-.857 1.532a8.92 8.92 0 003.957.95c2.878 0 4.398-.988 4.398-2.86 0-1.083-.369-2.213-4.193-2.836zm14.36 2.987l-1.916-6.509H28.6l-1.906 6.486-1.74-6.486h-1.968l2.559 8.972h2.173l1.687-5.91 1.675 5.91h2.183l2.573-8.972h-1.968l-1.747 6.51zm-4.545-12.12l2.38 3.18h.946V55.78h-.972v3.123l-2.358-3.123h-.968v4.755h.972v-3.18zm10.507 14.583h2.012v-8.972h-2.012v8.972zm.295-16.158h-4.061v1.01h1.532v3.745h1.031v-3.746h1.498V55.78zm-23.399 1.575l2.381 3.18h.946V55.78h-.972v3.123l-2.358-3.123h-.968v4.755h.971v-3.18zm14.095-34.032c0 1.977 1.616 3.58 3.61 3.58 1.993 0 3.609-1.603 3.609-3.58s-1.616-3.58-3.61-3.58c-1.993 0-3.609 1.603-3.609 3.58zm9.444 23.584h-5.577a6.73 6.73 0 01-4.772-1.96 6.62 6.62 0 01-1.976-4.733v-18.55a6.62 6.62 0 011.976-4.733 6.732 6.732 0 014.772-1.961h5.577v31.937zM41.331 11.9h-8.39c-5.436 0-9.843 4.371-9.843 9.763v18.55c0 5.393 4.407 9.764 9.843 9.764h8.39a.28.28 0 00.282-.28V12.18a.28.28 0 00-.282-.279zm11.717 17.092c2.144 0 3.881 1.724 3.881 3.85 0 2.126-1.737 3.85-3.88 3.85-2.144 0-3.882-1.724-3.882-3.85 0-2.126 1.738-3.85 3.881-3.85zm-7.313 20.985h5.907c5.437 0 9.843-4.371 9.843-9.764v-18.55c0-5.392-4.406-9.763-9.843-9.763h-5.938c-.139 0-.25.11-.25.248v37.55a.28.28 0 00.281.279z" fill="#FFF"/></g></svg>