<svg width="420" height="420" xmlns="http://www.w3.org/2000/svg" xmlns:xlink="http://www.w3.org/1999/xlink"><defs><path id="a" d="M.183.302H270.46v303.504H.183z"/></defs><g fill="none" fill-rule="evenodd"><g transform="translate(75 2)"><mask id="b" fill="#fff"><use xlink:href="#a"/></mask><path d="M77.957 303.332c2.82.906 8.8.48 9.641-.992.838-1.472-2.446-7.066-4.908-9.088-5.121-4.2-11.46-6.895-16.653-11.026C27.114 251.248 8.21 211.277 15.003 161.33c9.089-66.815 50.23-109.157 108.19-138.01 4.132-2.056 8.154-2.998 12.128-2.99 3.975-.008 7.999.934 12.13 2.99 57.958 28.853 99.1 71.195 108.188 138.01 6.796 49.948-12.11 89.92-51.034 120.897-5.19 4.131-11.531 6.826-16.65 11.026-2.465 2.022-5.749 7.616-4.908 9.088.84 1.471 6.82 1.898 9.64.992 18.265-5.848 32.514-17.586 44.868-31.917 39.029-45.264 39.352-96.136 21.593-149.586-14.446-43.496-46.086-73.023-81.471-99.235-10.39-7.69-21.562-14.596-33.156-20.243-2.51-1.223-5.881-1.95-9.184-2.049h-.029c-3.305.098-6.674.826-9.183 2.049-11.595 5.647-22.77 12.552-33.156 20.243-35.385 26.212-67.026 55.74-81.474 99.235-17.76 53.45-17.436 104.322 21.592 149.586 12.357 14.331 26.607 26.069 44.87 31.917" fill="#FFF" mask="url(#b)"/></g><path d="M372.568 209.886c-1.44-1.211-2.748-.766-3.593 0-.85.767-4.597 6.912-5.805 10.672-15.3 47.57-42.888 85.377-88.082 108.192-13.987 7.06-29.544 11.077-44.527 16.061-7.796 2.59-12.366-.535-12.101-9.152.476-15.333-3.075-31.36 5.748-45.385 3.596-5.716 8.728-10.751 14-15.07 14.348-11.753 30.276-21.78 43.527-34.618 29.95-29.008 35.402-83.007 13.266-118.203-2.497-3.972-7.279-10.123-8.86-11.05-1.578-.926-3.694.232-3.813 1.63-.117 1.4 2.19 9.09 3.956 13.354 9.51 22.987 13.428 46.151 6.72 70.952-10.47 38.696-45.368 61.529-83.005 61.83-37.637-.301-72.536-23.134-83.003-61.83-6.71-24.8-2.791-47.965 6.72-70.952 1.767-4.263 4.07-11.954 3.954-13.354-.116-1.398-2.232-2.556-3.813-1.63-1.581.927-6.36 7.078-8.86 11.05-22.136 35.196-16.683 89.195 13.269 118.203 13.248 12.837 29.179 22.865 43.526 34.618 5.272 4.319 10.404 9.354 14 15.07 8.823 14.025 5.27 30.052 5.75 45.385.264 8.617-4.307 11.742-12.105 9.152-14.983-4.984-30.54-9.001-44.527-16.061-45.192-22.815-72.78-60.623-88.082-108.192-1.208-3.76-4.955-9.905-5.802-10.672-.848-.766-2.156-1.211-3.594 0-1.44 1.215-1.787 8.747-1.072 12.668 1.443 7.925 3.159 16.006 6.294 23.374 25.35 59.567 66.938 100.617 131.74 115.167 17.51 3.935 18.68 6.785 13.257 24.175-.522 1.68-1.049 3.365-1.658 5.011-3.68 9.966.263 17.825 6.87 24.925 2.388 2.569 4.753 3.807 7.136 3.794 2.383.013 4.748-1.225 7.14-3.794 6.603-7.1 10.546-14.959 6.866-24.925-.61-1.646-1.134-3.33-1.658-5.011-5.42-17.39-4.253-20.24 13.256-24.175 64.803-14.55 106.39-55.6 131.74-115.167 3.136-7.368 4.852-15.449 6.298-23.374.715-3.921.365-11.453-1.073-12.668" fill="#FFF"/><path d="M228.998 231.74c10.124 3.006 42.396-20.35 45.661-54.703 3.728-39.13-23.523-71.297-62.879-72.997-.759-.035-1.51-.035-2.264-.04h-.029c-.755.005-1.509.005-2.268.04-39.355 1.7-66.604 33.866-62.879 72.997 3.269 34.353 35.538 57.71 45.661 54.703 2.538-.978-4.569-5.027-11.796-12.502-20.157-20.838-24.777-46.923-15.049-69.814 7.124-16.753 29.004-30.564 46.344-30.609 17.34.045 39.222 13.856 46.34 30.61 9.731 22.89 5.111 48.975-15.045 69.813-7.225 7.475-14.335 11.524-11.797 12.502" fill="#FFF"/></g></svg>