<svg xmlns="http://www.w3.org/2000/svg" xmlns:xlink="http://www.w3.org/1999/xlink" width="240" height="240"><defs><path id="a" d="M.032.18h150.742v239.575H.032z"/><path id="c" d="M.02.141h57.905v162.826H.02z"/></defs><g fill="none" fill-rule="evenodd"><g transform="translate(45)"><mask id="b" fill="#fff"><use xlink:href="#a"/></mask><path fill="#C22C3F" d="M86.635 43.193c.14.502.43.838.548 1.258.084.299.004.693.069.983.2.892.537 1.686 1.561 1.784.977.093 1.769-.221 2.739-.19.24.007.672.351.91.361-.14-.302-.44-.462-.596-.777-.221-.45-.297-1.062-.464-1.545-.43-1.241-1.249-1.861-2.548-1.873-.255-.002-.632.18-.885.18-.502 0-.873-.181-1.334-.181M65.957 98.9c-1.74-2.92-2.583-6.073-2.097-9.545.054-.391-.31-.84-.48-1.263-.258.4-.664.773-.74 1.204-.15.838-.176 1.712-.136 2.565.039.826-.473 1.185-1.084 1.178-.31-.004-.747-.566-.895-.961-.714-1.918-.722-3.901-.464-5.914.089-.69.266-1.585-.833-1.764-.11.124-.193.175-.213.244-.328 1.119-1.97 3.475-2.931 4.293-.21.178-.27.53-.398.801.314.102.666.346.936.277.604-.157 1.167-.47 1.82-.75.337 1.391.56 2.64.947 3.835.6 1.855.837 1.922 2.584 1.168.168-.073.356-.102.52-.147 1 2.434 1.525 4.976 3.17 7.075l2.549-1.769c.936 1.417 1.775 2.768 2.697 4.062 1.428 2.004 1.466 2.001 3.176.293.795-.793 1.478-.856 2.29-.002.597.629 1.325 1.132 2.066 1.75l3.612-5.541c.162.121.29.22.42.314 1.403.995 1.822.956 2.754-.445.892-1.34 1.704-2.733 2.58-4.149l2.542 1.275c.67-1.754 1.276-3.335 1.886-4.928.553.146.983.338 1.418.35.376.012.76-.18 1.14-.281-.223-.294-.394-.773-.677-.85-1.56-.43-1.968-1.476-1.816-2.94.05-.48.01-.993-.107-1.461-.137-.552.277-1.505-.753-1.452-.189.01-.331 1.061-.476 1.636-.028.11.032.24.05.362.423 2.726.243 5.351-1.368 7.782-1.309-.601-2.516-1.271-2.271-3.088.053-.391-.022-.832-.16-1.206-.106-.289-.401-.508-.613-.758-.191.278-.539.552-.545.834-.02.936-.026 1.897.158 2.809.513 2.535-1.158 4.055-2.398 5.8-1.465-.725-2.407-1.604-2.106-3.282a3.88 3.88 0 00-.01-1.464c-.09-.423-.378-.805-.578-1.205-.227.42-.61.827-.651 1.266-.097 1.012-.17 2.065 0 3.058.407 2.374-1.344 3.76-2.33 5.92-.84-1.12-1.777-1.893-2.056-2.856-.388-1.341-.257-2.827-.404-4.246-.043-.416-.275-.813-.42-1.22-.26.396-.729.784-.743 1.188-.045 1.218.124 2.441.128 3.663.002.395-.14.906-.408 1.162-.577.55-1.28.969-2.12 1.578-.924-1.494-2.08-2.778-2.542-4.274-.464-1.5-.236-3.213-.312-4.863-.917.37-1.006.368-1.024 1.575-.024 1.596-.321 2.928-2.284 3.307m-39.34-25.46c-1.9-1.685-2.31-3.909-2.604-6.142-.111-.846-.276-1.284-1.238-1.424-1.816-.265-2.924-1.658-2.857-3.702.196-6.041.37-12.088.775-18.117.374-5.583 1.023-11.148 1.573-16.719.22-2.234.508-4.463.747-6.696.045-.43.006-.868.006-1.303l-.342-.089c-.184.569-.435 1.125-.543 1.707a1221.45 1221.45 0 00-2.074 11.457c-1.605 9.115-2.226 18.323-2.577 27.556-.14 3.712-.243 7.426-.371 11.14-.01.282-.05.574-.134.843-.276.877-.82 1.201-1.68.716-1.795-1.014-2.663-2.741-3.301-4.56-.498-1.42-.77-2.919-1.115-4.389-.144-.615-.555-.88-1.008-1.291-1.142-1.04-2.08-2.363-2.87-3.706-.477-.81-.556-1.865-.76-2.82-.314-1.46-.183-3.012-1.75-4.048-.613-.405-.876-1.555-1.012-2.411a21.653 21.653 0 01-.27-4.272c.047-1.132.046-1.97-1.13-2.653-.563-.327-.868-1.371-.987-2.137-.511-3.323.267-6.517 1.38-9.603.348-.966.168-1.287-.623-1.658-.396-.186-.733-.512-1.075-.8-.9-.756-1.008-1.5-.195-2.483 5.787-7 11.642-13.938 18.589-19.846 1.953-1.662 4.087-3.117 6.192-4.59.688-.48 1.528-.78 2.336-1.049 1.116-.372 2.176.054 2.432 1.178.312 1.37.569 2.846.393 4.217-1.135 8.846-1.78 17.716-2.09 26.631-.176 5.102-.023 10.148 1.008 15.116 1.026 4.947 2.018 9.934 4.198 14.562 1.284 2.725 3.023 5.094 5.185 7.226 3.145 3.1 6.142 6.35 9.146 9.589.658.708 1.18.744 2.01.369 1.036-.47 2.144-.8 3.244-1.107.434-.12.93-.02 1.473-.02l-1.716 6.629.274.133c.954-1.25 1.84-2.527 2.236-4.13 1.723-6.974 3.46-13.946 6.201-20.616.185-.45.384-.894.636-1.478-.725-.375-1.451-.721-2.145-1.124-.295-.171-.919-.398-.97-.696-.02-.36.612-.571.892-.746 1.475-.922 2.972-1.808 4.632-2.81l-4.532-2.202.115-.346 6.315-2.718a186.84 186.84 0 01-.086-.356l-6.073-.351c-.205-.016-.28-.19-.05-.318 3.985-1.613 7.974-3.22 11.447-5.991l-4.078-1.951c-.226-.123-.265-.276.054-.363.448-.109.893-.232 1.344-.322 2.122-.422 4.242-.859 6.37-1.246 2.775-.504 5.54-1.159 8.34-1.395 3.053-.258 5.76 1.047 8.247 2.722 3.763 2.535 6.659 5.911 9.063 9.699 1.13 1.778 2.07 3.687 2.962 5.6.867 1.858-.065 3.416-.99 5.002-.13.344-.291-.194-.322-.258-.365-.752-.528-1.88-1.12-2.189-1.354-.705-2.898-1.093-4.403-1.444-.785-.183-1.766 1.167-1.475 1.979.469 1.305.945 2.632 1.642 3.818.292.497 1.104.69 1.923 1.127.03.016.081.047-.015.074-.617.172-1.135.38-1.647.372-2.263-.036-4.327-.805-6.28-1.893-1.418-.79-2.942-.074-3.269 1.605-.538 2.759.138 5.392 1.195 7.876.89 2.093 2.16 4.022 3.241 6.036.695 1.293 1.364 2.6 2.02 3.914.943 1.888 1.863 3.787 2.794 5.682l.364-.13-1.853-7.323c.916.142 1.684.229 2.437.388.518.109 1.098.204 1.506.502 1.517 1.112 2.492.412 3.573-.752 3.227-3.474 6.556-6.852 9.812-10.3 2.258-2.388 3.79-5.243 4.796-8.328 2.738-8.395 4.744-16.935 4.205-25.856-.485-8.03-1.086-16.054-1.658-24.08-.142-1.992-.432-3.976-.531-5.97-.035-.697.217-1.445.483-2.112.445-1.118 1.39-1.621 2.463-1.073 2.061 1.054 4.185 2.105 5.988 3.53 8.07 6.378 14.703 14.155 21.17 22.08.838 1.027.811 1.791-.737 2.627-1.555.839-1.487 1.651-.958 3.05.993 2.623 1.315 5.385 1.127 8.194-.088 1.312-.394 2.467-1.7 3.189-.326.18-.477.872-.512 1.343-.129 1.708-.11 3.428-.271 5.132-.122 1.293-.653 2.394-1.837 3.17-.37.243-.564.95-.607 1.464-.224 2.62-.855 5.088-2.586 7.141-.424.503-1.089.795-1.59 1.243-.297.267-.597.616-.713.985-.613 1.94-1.042 3.947-1.794 5.828-.423 1.058-1.238 2.028-2.07 2.84-1.164 1.133-2.129.77-2.317-.82-.187-1.577-.308-3.174-.293-4.761.082-9.09-.588-18.141-1.703-27.141-.788-6.356-2.115-12.646-3.215-18.962-.08-.458-.27-.897-.408-1.345l-.366.028c-.02.396-.093.798-.053 1.188.75 7.358 1.65 14.703 2.232 22.073.51 6.469.703 12.964.958 19.45.092 2.343-.955 3.48-3.232 4.078-.33.087-.694.587-.781.957-.513 2.17-.662 4.46-2.377 6.187-.171.173-.017.7.035 1.056.178 1.234.5 2.461.534 3.697.034 1.255-.64 2.275-1.749 2.91-.612.35-.67.749-.56 1.41.44 2.665-.106 6.18-3.56 7-.288.068-.545.651-.65 1.04-.737 2.709-2.105 4.685-5.231 4.818-.293.013-.654.288-.844.545-1.625 2.19-4.245 2.81-6.883 1.823-2.46-.922-4.497.681-4.847 3.071-.257 1.765-.739 3.51-1.256 5.222-1.471 4.879-2.793 9.82-4.62 14.567-.879 2.284-2.721 4.213-4.205 6.247-.766 1.05-1.895 1.874-2.502 2.994-.557 1.024-.691 2.298-.905 3.482-.237 1.314-.424 2.646-.479 3.977-.017.398.393.938.76 1.207 2.655 1.96 5.433 3.763 8.013 5.815 3.661 2.912 6.879 6.29 9.323 10.3.472.774.641 1.999.42 2.882-.933 3.707-2.606 7.114-4.775 10.393.28.214.536.487.85.633.666.309.774.759.281 1.232-.743.715-.234 1.095.315 1.607.92-1.979 1.825-3.88 2.69-5.8.904-2.007 1.764-4.034 2.653-6.048 2.118-4.796 5.907-8.111 10.047-11.193-.303 2.046.41 4.148-1.4 5.998-3.252 3.323-5.92 7.09-7.006 12.127.566-.345 1.035-.524 1.36-.847 2.289-2.272 4.547-4.574 6.818-6.863.135-.136.3-.241.576-.46 0 1.826.034 3.488-.028 5.146-.012.33-.35.684-.605.965-1.757 1.93-3.543 3.834-5.296 5.77-.317.35-.52.802-.6 1.458l6.237-2.978c0 1.714.052 3.118-.04 4.512-.02.311-.49.7-.842.866-1.59.75-3.19 1.493-4.828 2.127-3.247 1.255-4.982 3.957-6.664 6.732-.488.804-.943 1.632-1.492 2.393-2.235 3.101-2.57 6.733-2.895 10.352-.066.736.274 1.51.44 2.263.073.331.18.656.314 1.14-1.35-.11-2.007-.809-2.529-1.717-1.605-2.795-1.724-5.818-1.425-8.92.05-.509.049-1.09-.148-1.544-.847-1.944-1.804-3.84-2.663-5.78-.451-1.02-.98-1.773-2.27-1.493-.263.057-.561-.05-.991-.097.172-1.922.271-3.824.527-5.705.373-2.733-.337-5.108-2.196-7.11-.43-.462-1.273-1.076-1.645-.927-.505.204-.937 1.038-1.058 1.667-.87 4.536.213 8.954 1.115 13.334 1.188 5.766 2.98 11.399 5.511 16.71 1.995 4.185 4.38 8.214 6.889 12.123 3.867 6.026 8.275 11.663 13.33 16.769.195.197.35.435.76.95-.913.261-1.644.632-2.385.654-3.324.097-6.62-.103-9.798-1.25-1.147-.414-2-.98-2.657-2.12-4.158-7.197-7.643-14.713-10.515-22.49a79.166 79.166 0 01-4.233-16.954c-.046-.348-.192-.683-.292-1.024l-.477.056c.03.642-.018 1.3.1 1.926 1.053 5.532 1.854 11.131 3.273 16.57 2.366 9.067 5.733 17.79 10.423 25.956.59 1.028 1.124 2.089 1.75 3.094.433.695.35 1.134-.33 1.622-2.971 2.131-5.958 1.662-9.043.255-2.261-1.032-3.542-2.597-3.894-5.126-.906-6.507-2.002-12.986-2.956-19.486-.741-5.049-1.406-10.108-2.061-15.169-.404-3.118-.723-6.247-1.09-9.37-.042-.366-.15-.725-.227-1.087l-.389.019c-.056.4-.185.805-.158 1.2.641 9.532 1.181 19.073 1.996 28.59.536 6.26 1.45 12.489 2.252 18.724.129 1.002-.033 1.711-.86 2.333-2.51 1.885-4.984 3.815-7.61 5.833-2.665-2.037-5.157-3.942-7.651-5.844-.744-.567-.99-1.25-.884-2.224 1.126-10.267 2.266-20.533 3.262-30.812.394-4.062.419-8.158.65-12.235.076-1.343.294-2.676.4-4.017.042-.516-.047-1.043-.076-1.566l-.429-.045c-.118.35-.301.69-.346 1.05-.853 6.763-1.65 13.535-2.54 20.294a1431.58 1431.58 0 01-2.96 21.223c-.254 1.728-.778 3.42-1.242 5.11-.107.39-.4.855-.74 1.033-1.726.907-3.43 1.928-5.267 2.533-2.216.73-4.337.122-6.252-1.245-.694-.497-.735-.861-.31-1.583a117.57 117.57 0 008.922-18.65c2.842-7.61 4.564-15.486 5.89-23.468.233-1.408.48-2.813.691-4.225.057-.381.009-.778.009-1.168a81.186 81.186 0 00-.323-.1c-.134.312-.317.612-.394.937-1.15 4.88-2.025 9.843-3.505 14.62-1.347 4.345-3.194 8.559-5.1 12.703-1.975 4.294-4.255 8.45-6.483 12.623-.329.615-1.03 1.175-1.69 1.447-3.435 1.416-7.067 1.63-10.732 1.518-.321-.01-.649-.105-.957-.208-.985-.33-1.068-.685-.365-1.466 2.132-2.366 4.427-4.607 6.367-7.12 5.567-7.217 11.017-14.532 14.475-23.068 2.18-5.38 4.033-10.874 5.138-16.584.776-4.009 1.613-8.035.894-12.15-.105-.596-.515-1.367-1-1.592-.348-.161-1.19.329-1.582.743-1.863 1.963-2.76 4.272-2.396 7.035.254 1.936.358 3.893.527 5.82-.109.066-.181.147-.24.14-1.862-.272-2.76.686-3.362 2.34-.625 1.72-1.536 3.334-2.25 5.025-.19.455-.208 1.03-.15 1.534.363 3.2.102 6.28-1.602 9.11-.207.344-.451.725-.779.923-.417.252-.937.336-1.412.492.087-.43.13-.874.27-1.287.637-1.871.09-3.704-.085-5.565-.397-4.194-3.052-7.294-4.979-10.769-1.725-3.112-4.486-4.745-7.61-6.007-.795-.322-1.545-.8-2.366-1.005-1.304-.325-1.591-1.122-1.489-2.32.083-.971.017-1.955.017-3.335l6.253 2.992.296-.245c-.9-1.191-1.727-2.446-2.715-3.559-1.11-1.248-2.374-2.361-3.554-3.55-.21-.212-.477-.501-.484-.761-.043-1.669-.022-3.34-.022-5.326 1.101 1.014 2.11 1.858 3.02 2.798 1.505 1.556 2.936 3.185 4.427 4.755.27.284.678.438 1.023.651l.387-.28c-.787-1.888-1.332-3.932-2.421-5.626-1.515-2.356-3.452-4.44-5.175-6.667-.34-.438-.678-.967-.76-1.494-.207-1.315-.267-2.653-.385-3.982l.32-.237c1.064.895 2.115 1.806 3.192 2.684 4.024 3.278 6.458 7.616 8.387 12.322 1.126 2.748 2.4 5.435 3.677 8.307l.778-.982c-.861-1.275-.861-1.275.473-2.379-1.28-2.726-2.48-5.433-3.81-8.075-1.293-2.57-1.182-4.888.716-7.133 2.882-3.406 5.736-6.833 9.43-9.42 2.507-1.757 5.053-3.457 7.543-5.236.316-.226.55-.778.556-1.182.012-1.016-.202-2.036-.191-3.053.02-1.847-1.16-3.034-2.14-4.397-2.288-3.18-4.735-6.296-6.579-9.727-1.429-2.66-2.174-5.72-2.982-8.668-.978-3.573-1.585-7.249-2.604-10.808-.316-1.104-.697-2.554-2.562-2.676-.93-.061-1.697-.182-2.598.211-1.745.762-5.467.219-6.488-1.851-.145-.294-.61-.59-.943-.609-3.054-.167-4.46-2.132-5.187-4.755-.214-.773-.562-1.106-1.287-1.388-1.895-.737-2.869-2.22-3.023-4.235-.028-.366-.056-.74-.018-1.103.14-1.382.033-2.488-1.221-3.579-1.692-1.47-1.304-3.547-.587-5.475.14-.379.347-.733.559-1.171" mask="url(#b)"/></g><path fill="#C22C3F" d="M33.543 58c-.423 4.311-.052 8.21 1.995 11.847.321.572.416 1.308.473 1.98.249 2.937 1.542 5.34 3.584 7.438.454.467.762 1.217.844 1.873.643 5.148 1.308 10.318 4.345 14.72 1.253 1.816 1.905 3.83 2.803 5.764 1.702 3.668 4.382 6.451 7.804 8.552.532.326 1.286.297 1.947.434 1.245 1.49 2.542 3.103 3.913 4.651.479.541 1.073 1.11 1.73 1.34 1.168.406 1.33 1.258 1.453 2.248.805 6.515 2.763 12.708 5.42 18.694.675 1.523 1.69 2.916 2.227 4.477.49 1.422.679 2.984.766 4.497.257 4.466.516 8.937.557 13.407.065 7.037-.036 14.076-.106 21.114-.005.478-.334.952-.513 1.428-.421-.269-.94-.455-1.249-.818-4.626-5.449-7.757-11.744-10.5-18.261-3.178-7.555-5.067-15.442-6.424-23.492-1.544-9.158-2.084-18.345-1.336-27.603.045-.563.035-1.15-.083-1.697-.062-.291-.433-.748-.625-.729-.32.032-.803.335-.874.611a20.78 20.78 0 00-.521 3c-1.033 9.604-.686 19.187.711 28.725 1.734 11.836 5.109 23.202 10.66 33.856a50.15 50.15 0 008.23 11.518c.35.366.697.861.771 1.339 1.152 7.35 2.652 14.667 2.434 22.162a216.985 216.985 0 01-.366 8.043c-.043.643-.411 1.266-.932 1.882-.677-1.633-1.317-3.282-2.04-4.895-2.61-5.832-6.29-11.029-9.874-16.285-5.075-7.442-10.207-14.848-15.151-22.374-3.247-4.942-4.377-10.648-5.323-16.37-1.285-7.771-1.5-15.608-1.806-23.463-.48-12.362 1.066-24.523 2.763-36.697.163-1.169.448-2.33.488-3.501.017-.476-.468-.969-.724-1.454-.342.365-.916.69-.992 1.103-1.262 6.837-2.62 13.663-3.635 20.538-1.383 9.368-1.36 18.828-1.209 28.27.076 4.672.53 9.338.808 14.007.025.421.003.845.003 1.268l-.331.14c-.319-.309-.717-.57-.943-.935-1.847-2.98-3.757-5.927-5.464-8.985-2.304-4.13-4.208-8.444-5.76-12.923-.976-2.819-.945-5.684-.916-8.566.06-5.875.615-11.723 1.942-17.44 1.562-6.732 3.354-13.417 5.239-20.068 1.174-4.144 2.724-8.182 4.055-12.284.246-.758.336-1.595.327-2.394-.005-.407-.387-.81-.6-1.216-.386.296-.945.512-1.128.902a52.963 52.963 0 00-1.814 4.404 280.397 280.397 0 00-10.392 35.852c-.365 1.666-.62 3.356-.975 5.025-.084.393-.367.744-.559 1.114-.266-.351-.709-.675-.771-1.06-.541-3.332-1.262-6.66-1.453-10.017-.34-5.966-.442-11.951-.446-17.928-.002-2.424.266-4.91.868-7.252.529-2.054 1.567-4.016 2.607-5.896a568.944 568.944 0 018.268-14.435c1.798-3.038 3.766-5.977 5.8-9.185"/><g transform="translate(166 58)"><mask id="d" fill="#fff"><use xlink:href="#c"/></mask><path fill="#C22C3F" d="M.908 124.378c-.093-.545-.252-1.087-.267-1.634-.304-11.003-.224-22 .429-32.99.029-.486.067-.985-.01-1.46-.482-3.009 1.333-5.278 2.504-7.742 2.265-4.77 3.917-9.744 5.064-14.883.433-1.942.67-3.926 1.029-5.885.057-.314.216-.746.458-.869 2.66-1.353 4.408-3.567 5.887-6.05.123-.208.286-.391.43-.586l.177.345c.923-.378 1.954-.604 2.751-1.16 3.42-2.393 5.996-5.467 7.53-9.406.624-1.605 1.518-3.117 2.396-4.61 2.675-4.545 3.565-9.563 4.083-14.698.052-.512.262-1.13.618-1.471 2.482-2.379 3.739-5.274 3.964-8.67.034-.505.25-1.032.503-1.48 1.44-2.556 2.028-5.302 1.974-8.21-.015-.802-.002-1.605-.002-2.778 1.642 2.612 3.163 4.898 4.548 7.263 3.313 5.66 6.576 11.349 9.833 17.041 1.883 3.29 2.444 6.912 2.773 10.636.75 8.5.23 16.929-1.096 25.33a117.474 117.474 0 01-.718 4.09c-.073.376-.277.726-.57 1.464-.35-.669-.64-1-.696-1.366-1.116-7.217-3.05-14.241-4.987-21.267-2.25-8.166-4.836-16.223-8.049-24.068-.18-.442-.758-.722-1.152-1.077-.274.457-.844.97-.77 1.362.311 1.668.704 3.339 1.265 4.94 2.921 8.343 5.453 16.796 7.453 25.405 1.551 6.68 2.337 13.442 2.853 20.287.473 6.258-1.134 11.872-3.795 17.292-2.17 4.42-4.664 8.682-7.067 12.984-.54.967-1.304 1.81-1.965 2.71a76.443 76.443 0 01-.333-.117c-.047-.334-.144-.67-.133-1.003.262-7.857.686-15.712.769-23.57.109-10.325-.974-20.563-2.925-30.707-.53-2.757-1.078-5.512-1.62-8.268a6.633 6.633 0 00-.14-.593c-.187-.625-.317-1.395-1.234-1.16-.827.212-.785.914-.687 1.6.64 4.432 1.42 8.85 1.869 13.302.609 6.034 1.188 12.087 1.364 18.144.185 6.384.111 12.795-.267 19.17-.453 7.64-1.284 15.302-3.713 22.599-1.18 3.548-3.085 6.93-5.091 10.119-3.317 5.274-7.003 10.318-10.493 15.486-3.101 4.592-6.303 9.129-9.164 13.866-1.842 3.05-3.15 6.42-4.695 9.648-.203.423-.389.853-.582 1.28l-.398.004c-.229-1.076-.636-2.15-.655-3.23-.079-4.556-.279-9.131.022-13.67.282-4.254 1.23-8.46 1.702-12.707.237-2.129 1.088-3.734 2.5-5.34 5.211-5.921 8.728-12.836 11.492-20.172 2.406-6.38 4.19-12.923 5.421-19.62 1.5-8.163 2.168-16.396 1.916-24.689-.098-3.212-.364-6.423-.677-9.622-.084-.856.105-2.375-1.216-2.273-1.41.11-.778 1.562-.777 2.42.01 4.645.24 9.292.143 13.932-.138 6.492-1.253 12.881-2.507 19.24-2.42 12.281-6.924 23.725-13.967 34.127-.798 1.177-1.837 2.193-2.765 3.284l-.537-.269" mask="url(#d)"/></g><path fill="#C22C3F" d="M58.527 75l3.012.957c.33 1.952.673 4.126 1.067 6.292 1.765 9.684 3.542 19.367 5.322 29.049.392 2.132-.847 3.277-2.917 2.411-3.532-1.478-5.58-4.236-5.973-7.935-1.044-9.805-1.352-19.635-.688-29.481.03-.443.12-.882.177-1.293m120.03 1.876L181.53 76c.115 2.655.201 5.29.35 7.923.406 7.236-.311 14.432-.834 21.634-.243 3.357-2.066 5.876-4.892 7.77-.527.354-1.23.569-1.877.646-1.689.202-2.514-.756-2.219-2.344 2.08-11.17 4.139-22.343 6.21-33.515.085-.465.213-.923.287-1.238M54.846 71c.735 1.105 1.422 2.11 2.069 3.14.112.18.083.464.077.7-.195 7.665-.448 15.33-.568 22.997-.046 2.948.21 5.9.32 8.851.011.28-.033.56-.084 1.312-1.534-1.28-2.876-2.308-4.113-3.45-2.198-2.03-3.537-4.595-4.375-7.435-.113-.383-.228-.827-.142-1.197 1.882-8.146 3.585-16.34 6.488-24.213.08-.217.194-.42.328-.705m128.594 37v-6.737c-.003-6.469.005-12.937-.021-19.406-.007-1.605.138-3.276-.263-4.8-.64-2.438.817-4 2.05-6.057.944 2.852 1.919 5.426 2.642 8.065 1.35 4.928 2.469 9.916 3.861 14.832.623 2.198.183 4.106-.73 6.067-1.617 3.47-4.38 5.875-7.539 8.036M46.824 94c-1.743-2.717-2.33-5.565-2.998-8.379-.198-.836-.268-1.706-.502-2.53-1.043-3.673.634-6.74 2.153-9.802 1.505-3.034 3.164-5.99 4.777-8.969.267-.492.643-.923.925-1.32 2.4.823 2.425 2.97 2.81 4.89.057.286-.114.627-.206.934-1.63 5.484-3.317 10.952-4.877 16.457-.791 2.789-1.356 5.643-2.082 8.719m142.164-31c1.733 3.234 3.532 6.531 5.27 9.861.776 1.49 1.426 3.045 2.136 4.569.787 1.69.715 3.485.308 5.195-.803 3.376-1.789 6.708-2.73 10.049-.117.411-.426.768-.747 1.326-.83-3.446-1.49-6.72-2.418-9.918-1.493-5.149-3.173-10.242-4.738-15.37-.133-.434-.045-.959.026-1.429.26-1.732.67-3.393 2.893-4.283m-41.966 57.138l4.569-1.138c.411 2.137.86 4.32 1.249 6.516.718 4.055 1.433 8.11 2.07 12.18.125.8.178 1.881-.237 2.447a4.484 4.484 0 01-3.709 1.857c-3.77-.053-4.012-.449-3.958-4.235.08-5.709.018-11.42.016-17.131v-.496M87.86 119l4.85 1.083c0 .879-.016 1.9.002 2.921.101 5.664.226 11.328.288 16.992.005.45-.28 1.098-.656 1.321-1.868 1.11-5.217.791-7.095-.412-1.078-.691-1.407-1.499-1.182-2.646.585-2.99 1.127-5.988 1.697-8.981a1653.3 1653.3 0 011.734-8.975c.087-.443.241-.875.362-1.303m-7.591 19c-.713-.198-1.462-.305-2.13-.611-2.286-1.049-2.485-1.569-1.776-4.044 1.674-5.854 3.323-11.717 5.776-17.277.585-1.323 2.033-1.39 2.966-.348 1.022 1.14 1.012 2.232.735 3.683-1.014 5.305-1.873 10.643-2.766 15.974-.389 2.323-.574 2.52-2.805 2.623m79.348-.015c-2.108-.014-2.235-.233-2.582-2.263-.97-5.669-2.023-11.322-3.023-16.986-.045-.258.04-.595.174-.825.256-.44.598-.822.89-1.239.704-1.003 2.34-.868 2.75.302 1.668 4.762 3.29 9.54 4.916 14.318.397 1.166.693 2.373 1.125 3.524.255.678.149 1.154-.373 1.558-1.208.937-2.465 1.748-3.877 1.61M88.109 100.78c.894-.243 1.767-.485 2.643-.717 1.099-.29 2.578.474 2.85 1.528 1.15 4.467 2.29 8.936 3.386 13.415.069.283-.161.774-.418.964-2.372 1.757-6.106 1.043-8.054-.464-.278-.216-.465-.694-.468-1.053-.042-4.45-.043-8.9-.048-13.35 0-.11.073-.222.109-.323m64.865 0v3.805c0 3.063-.047 6.128.025 9.19.027 1.192-.385 1.932-1.547 2.417-2.271.949-4.499 1.205-6.759-.009-.597-.32-.81-.671-.632-1.348 1.169-4.426 2.289-8.864 3.436-13.296.238-.918 1.686-1.73 2.649-1.498.487.117.959.291 1.443.42.436.116.881.204 1.385.32M77.035 113L80 115.218c-.915 2.524-1.902 5.066-2.76 7.657-1.13 3.41-2.183 6.852-3.213 10.3-.297.994-.758.997-1.406.498-1.752-1.348-2.936-3.15-3.546-5.364-.1-.362-.115-.873.05-1.178 2.516-4.638 5.068-9.254 7.617-13.871.053-.098.17-.154.293-.26M48.201 56c.609 1.668 1.21 3.236 1.74 4.828.106.32.07.829-.115 1.09-2.976 4.174-5.011 8.868-7.164 13.497-.035.075-.056.156-.088.232-.721 1.696-1.36 1.795-2.384.312-1.39-2.014-1.876-4.355-2.182-6.743-.037-.292.054-.686.232-.91 3.2-4.05 6.422-8.08 9.645-12.11.07-.088.2-.126.316-.196m118.098 78L160 115.147l2.92-2.147c.725 1.146 1.54 2.302 2.225 3.537a727.156 727.156 0 015.719 10.54c.149.28.175.729.08 1.039-.646 2.127-1.718 3.968-3.467 5.298-.326.247-.737.371-1.178.586m25.58-78c1.25 1.47 2.463 2.834 3.605 4.258 1.92 2.393 3.766 4.846 5.7 7.227.766.943.996 1.885.676 3.067-.538 1.98-.889 4.022-2.257 5.661-.904 1.082-1.232 1.084-1.883-.219-1.52-3.045-2.931-6.147-4.51-9.16-.89-1.699-2.033-3.258-3.033-4.9-.142-.234-.228-.618-.144-.863.557-1.623 1.167-3.226 1.846-5.071M48 53.824L36.734 67c-1.035-.945-1.162-2.283-1.378-3.531-.23-1.331-.27-2.695-.346-4.047-.065-1.172.177-2.2 1.172-3.07 2.771-2.422 5.46-4.932 8.198-7.39.386-.345.87-.589 1.433-.962.31 2.257.543 4.356 2.187 5.824M202.673 68L192 54.765c1.392-1.433 1.817-3.454 2.023-5.765.526.347 1.03.579 1.41.947 2.673 2.59 5.34 5.187 7.954 7.84.37.376.636 1.075.611 1.608a100.61 100.61 0 01-.54 6.73c-.068.6-.474 1.16-.785 1.875M74.853 93c1.205 2.472 2.427 4.842 6.147 4.795-.958 1.294-1.764 2.403-2.591 3.497-1.26 1.666-2.594 3.284-3.774 4.998-.575.835-1.123.795-2.01.575-3.397-.842-4.127-3.643-5.202-6.196-.202-.479-.266-1.01-.423-1.63L74.853 93M159 97.807c3.315-.037 4.463-2.333 5.538-4.807L172 99.16l-1.96 4.89c-.731 1.819-2.317 2.467-3.993 2.934-.279.078-.794-.138-.979-.387a454.09 454.09 0 01-5.37-7.424c-.272-.381-.435-.842-.698-1.366m-63.465 40.647c-.18-5.742-.363-11.484-.533-17.226-.02-.664.11-1.339.042-1.994-.102-.985.55-1.053 1.176-1.2.824-.194.765.485.897.982 1.587 5.971 3.164 11.946 4.778 17.91.212.784.132 1.337-.507 1.852a59.693 59.693 0 00-3.242 2.777c-.632.588-1.286.56-1.848.11-.363-.291-.618-.856-.716-1.343-.121-.599-.029-1.244-.029-1.869h-.018m47.588-19.44c1.413-.107 1.93.425 1.873 1.737-.229 5.281-.399 10.566-.574 15.85-.046 1.372.022 2.75-.08 4.117-.031.415-.382 1.03-.724 1.145-.522.177-1.301.212-1.728-.066-1.106-.723-2.044-1.698-3.116-2.48-.788-.573-.914-1.199-.647-2.089 1.009-3.36 2.006-6.723 2.937-10.105.737-2.675 1.37-5.378 2.06-8.109M81.558 99L86 101.067c-.147 2.649-.301 5.521-.469 8.393-.068 1.169-.208 2.336-.234 3.505-.016.677-.239.96-.948 1.02-2.843.236-7.111-2.236-8.214-4.86-.156-.372-.2-.956-.008-1.276 1.808-3.023 3.679-6.011 5.432-8.849M154 101.086L158.404 99c1.762 2.86 3.66 5.908 5.502 8.987.17.284.085.814-.06 1.158-1.122 2.65-5.27 5.11-8.206 4.834-.36-.034-.955-.488-.974-.777-.27-4.072-.462-8.15-.666-12.116M33.868 45.078c.036.636.216 1.3.085 1.903-.562 2.582-1.148 5.146-.922 7.82.046.55-.16 1.223-.487 1.685-1.774 2.514-3.675 4.946-5.431 7.47-2.061 2.964-4.017 5.995-6.022 8.995-.238.355-.494.7-.742 1.049L20 73.892c.051-.385.032-.795.165-1.152 2.626-7.029 5.787-13.834 9.308-20.487.994-1.878 1.962-3.77 2.964-5.643.298-.556.673-1.075 1.012-1.61l.419.078M206.633 45c4.997 9.351 9.952 18.72 13.367 28.759l-.463.241c-.664-1.044-1.29-2.11-1.997-3.127-2.9-4.172-5.79-8.352-8.756-12.48-1.14-1.587-1.974-3.075-1.868-5.197.106-2.139-.604-4.311-.896-6.477-.074-.548.08-1.126.129-1.69l.484-.029M42.781 41.013c.642 1.122 1.204 2.186 1.844 3.198.629.994.45 1.878-.405 2.637-2.716 2.415-5.382 4.89-8.068 7.343-.223.204-.45.407-.894.809-.107-1.028-.296-1.835-.251-2.628.095-1.669.248-3.34.515-4.988.1-.622.445-1.361.913-1.732 2.023-1.6 4.131-3.085 6.213-4.605.083-.061.215-.05.133-.034M203.582 55c-1.402-1.384-2.642-2.697-3.974-3.898-1.664-1.5-3.4-2.915-5.117-4.35-.557-.466-.66-1.628-.206-2.37.653-1.066 1.277-2.15 2.007-3.382 1.556 1.18 3.236 2.45 4.912 3.726.89.677 1.975 1.143 2.171 2.506.364 2.517 1.084 5.018.207 7.768"/><path fill="#C22C3F" d="M66.986 124c-.368-2.493-.717-4.702-.985-6.922-.026-.214.415-.573.712-.721 2.454-1.227 3.138-2.515 2.663-5.265-.249-1.436-.575-2.86-.826-4.092 1.554.483 3.17.903 4.71 1.513.478.188.707.937 1.129 1.348.949.923.659 1.762.035 2.729-2.222 3.445-4.387 6.926-6.582 10.388-.173.272-.415.5-.856 1.022m103.502-17c-.275 1.459-.592 2.942-.829 4.437-.333 2.102.08 4.099 2.652 5.1.308.12.716.6.688.872-.229 2.171-.551 4.333-.845 6.497l-.395.094c-1.205-1.912-2.413-3.821-3.613-5.736-1.277-2.04-2.525-4.098-3.83-6.12-.428-.666-.45-1.161.111-1.774.65-.71 1.931-1.677 2.877-2.043 1.05-.407 2.081-.865 3.184-1.327M74 91.431L67.005 96c-.177-.543-.33-.877-.394-1.23-.522-2.835-1.002-5.678-1.548-8.508-.196-1.013.043-1.582 1.048-1.877 1.243-.365 2.449-.867 3.877-1.385-.236 3.634.425 6.645 4.012 8.431M172.828 95L166 90.862c3.567-1.61 4.18-4.415 4.087-7.862 1.64.596 3.151 1.12 4.633 1.714.18.073.319.548.27.8a749.223 749.223 0 01-1.83 9.12c-.02.099-.154.176-.332.366m-73.523 26c1.863 2.522 3.72 5.049 5.597 7.561.424.568.852 1.16 1.397 1.615 2.096 1.742 1.514 4.15 1.7 6.314.04.457-1.115 1.302-1.833 1.439-.747.142-1.92.177-2.267-.944-1.64-5.31-3.267-10.623-4.899-15.934l.305-.051M195 34c2.132.82 4.061 1.511 5.936 2.305.937.397 1.903.864 2.632 1.503 1.623 1.422 1.895 4.19.67 6.192-.982-.59-1.967-1.157-2.92-1.763a183.54 183.54 0 01-4.873-3.175c-.335-.227-.648-.62-.73-.982-.277-1.235-.446-2.49-.715-4.08M44 34c-.224 1.577-.413 2.967-.631 4.352-.027.166-.184.357-.34.46a1507.1 1507.1 0 01-7.932 5.12c-.095.06-.249.047-.371.068-1.419-2.886-.876-6.294 2.686-7.56 1.73-.616 3.418-1.329 5.131-1.985.418-.16.86-.27 1.457-.455m96 89.098c-.92 3.454-1.832 6.91-2.763 10.36a66.505 66.505 0 01-.942 3.167c-.346 1.069-1.088 1.558-1.907 1.313-.673-.2-1.478-1.5-1.38-2.233.193-1.446.37-2.894.593-4.334.058-.375.187-.787.409-1.077 1.818-2.377 3.664-4.73 5.506-7.086.067-.086.172-.14.26-.208l.224.098M67.957 74.142c-.798 2.896-.988 5.505 1.043 7.93L64.43 83c-.16-2.842-.331-5.535-.43-8.232-.01-.255.432-.754.673-.762 1.053-.033 2.109.074 3.284.136M175.437 83L171 82.134c1.902-2.44 1.853-5.038.897-8.042 1.248-.04 2.38-.153 3.497-.05.24.022.626.834.605 1.26-.125 2.488-.351 4.97-.562 7.698M64.002 66l2.157 1.394L67 72c-.92-.198-1.798-.368-2.665-.596-.138-.036-.315-.336-.318-.518-.025-1.578-.015-3.157-.015-4.886m111.993 0c0 1.71.02 3.246-.02 4.78-.005.238-.24.623-.425.675-.83.232-1.68.369-2.55.545.262-1.571.468-2.93.733-4.275.047-.242.306-.476.515-.624.493-.35 1.014-.645 1.747-1.101M43.824 28L46 30.497c-1.5 1.887-3.784 2.381-5.727 3.503L40 33.681 43.824 28M194 31.163L196.244 29 200 33.744l-.257.256c-1.991-.947-4.275-1.42-5.743-2.837"/></g></svg>