<svg xmlns="http://www.w3.org/2000/svg" width="240" height="240"><path fill="#C8AC3D" fill-rule="evenodd" d="M129.444 100.805l-1.851-3c1.244.235 2.216 1.816 1.851 3zm1.72-.011c.88-.949 1.69-1.813 2.482-2.693.056-.062.022-.28-.047-.356-.068-.075-.237-.094-.355-.08-.968.12-2.239 1.953-2.08 3.129zm-8.678-17.001c-.197 1.773.669 3.907 2.115 4.223.335.073.786.285.91.557.713 1.582 1.964 3.105.797 4.994-.012.02.045.082.111.197.542-1.045 1.29-1.938.816-3.14-.683-1.728-1.456-3.423-2.07-5.174-.477-1.367-1.6-1.375-2.68-1.657zm-10.194-9.225l-.233.347c.74.536 1.441 1.137 2.228 1.593.919.532 1.594 1.139 2.016 2.192.373.93.898 1.853 1.97 2.386 1.247.62 2.44 1.443 2.745 3 .012.062.153.098.234.147.452-.833-.216-2.8-1.081-3.133-1.348-.519-2.4-1.385-3.027-2.67-.589-1.205-1.398-2.128-2.621-2.7-.759-.355-1.488-.772-2.23-1.162zm32.157 10.996c.16-.211.32-.343.375-.51.413-1.26 1.224-1.885 2.594-1.945.988-.043 1.759-.544 2.243-1.54.87-1.792 2.095-3.268 3.975-4.163 1.017-.485 1.926-1.21 2.853-1.867.205-.146.283-.47.42-.712-.268.016-.59-.059-.795.064-1.242.745-2.493 1.484-3.667 2.329-.677.487-1.271 1.121-1.805 1.77-1.323 1.613-2.227 3.65-4.837 3.698-1.035.018-1.63 1.5-1.356 2.876zm-3.704 2.442c1.209-.485 1.234-1.724 1.678-2.686.123-.269.132-.868.02-.918-.377-.164-.883-.297-1.246-.172-.955.33-1.751.877-2.228 1.869-.791 1.643-1.61 3.282-2.563 4.834-.654 1.065-.31 1.849.329 2.711-.592-1.985.519-3.252 1.853-4.356.647-.537 1.337-.813 2.071-1.244l.086-.038zM142.624.264c.211-.106.24-.132.271-.134 2.675-.205 2.618-.19 3.279 2.387 1.01 3.948 1.838 7.974 3.261 11.772.99 2.642 1.467 5.374 2.331 8.017.174.531.537 1.049.936 1.449 2.006 2.009 4.119 3.914 6.06 5.981 1.199 1.276 2.129 2.8 3.233 4.17 1.058 1.314 2.187 2.57 3.385 3.97.978-1.493 1.846-2.812 2.706-4.134 1.996-3.072 3.99-6.145 5.98-9.22.188-.29.413-.583.495-.907.42-1.65 1.601-2.616 2.876-3.628 2.429-1.926 4.717-4.03 7.067-6.056 1.073-.925 2.107-1.906 3.256-2.726.412-.295 1.276-.453 1.639-.218.798.516.752 1.69.172 2.355-3.243 3.717-6.715 7.268-9.639 11.223-3.212 4.346-5.96 9.04-8.821 13.638-1.67 2.684-1.786 5.767-1.861 8.82-.022.882-.203 1.61-.727 2.395-1.836 2.756-2.736 5.856-2.31 9.154.223 1.726 1.189 3.233 2.832 4.132 1.522.833 2.991 1.21 4.795.562 4.194-1.505 8.46-2.775 12.116-5.481 2.46-1.822 4.472-3.943 5.746-6.783 1.355-3.023 2.89-5.965 4.336-8.946 1.42-2.924 1.602-5.97.785-9.08-1.103-4.198-1.619-8.475-1.818-12.798-.018-.393.022-.851.215-1.17.174-.287.757-.664.878-.583.46.311 1 .727 1.163 1.219a70.713 70.713 0 011.557 5.472c.74 3.015 1.412 6.047 2.106 9.074.23 1.007.464 2.014.65 3.03.073.395.14.86.003 1.212-.55 1.406-1.197 2.775-1.778 4.17-1.313 3.153-2.61 6.313-3.905 9.473-.049.12-.027.267-.053.574.657-.064 1.254-.123 1.852-.178 3.2-.3 6.397-.654 9.604-.874 1.325-.09 2.367-.687 3.39-1.38 2.027-1.377 4.01-2.819 6.04-4.19.713-.48 1.486-.898 2.284-1.21.348-.136.974-.076 1.21.16.235.235.264.831.169 1.216-.356 1.44-1.788 1.929-2.7 2.884-2.815 2.95-6.297 5.032-9.697 7.19-1.063.673-2.457.862-3.725 1.17-2.45.594-4.91 1.154-7.382 1.65-1.384.278-2.805.372-4.199.612-.368.064-.765.293-1.033.562-2.7 2.703-5.563 5.172-9.072 6.81-.396.186-.73.831-.814 1.312-.6 3.43-1.442 6.838-1.312 10.356.077 2.065.105 4.151.433 6.183.534 3.308 2.941 5.009 5.852 6.13.298.114.719.132 1.01.015 3.847-1.557 7.65-3.222 11.054-5.63.697-.494 1.079-1.417 1.663-2.092.964-1.116 1.878-2.304 2.987-3.26 2.135-1.84 3.984-3.868 5.565-6.226 1.356-2.021 3.114-3.774 4.712-5.63.472-.55.958-1.103 1.519-1.555.944-.762 1.952-1.444 2.902-2.137 1.238 1.283 1.016 2.884.222 3.863a91.214 91.214 0 00-7.391 10.508c-.687 1.143-1.97 1.91-2.866 2.947-1.757 2.036-3.427 4.146-5.146 6.216-.545.657-1.13 1.283-1.763 2 .34 1.703 1.4 3.18 2.397 4.651 1.384 2.042 2.994 3.877 5.348 4.917.444.196.78.763 1.037 1.23 2.356 4.299 5.54 8.005 8.477 11.886.624.826 1.26 1.647 1.943 2.424 1.044 1.19.38 2.573.392 4.026-.524-.407-1.011-.876-1.578-1.21-3.332-1.971-5.267-5.222-7.538-8.164-.802-1.038-1.46-2.22-2.397-3.11-.822-.78-1.875-1.54-2.947-1.787-1.9-.437-3.202-1.57-4.384-2.93a241.934 241.934 0 01-5.723-6.82c-.586-.726-.989-.833-1.759-.236-1.364 1.056-2.914 1.623-4.708 1.556-3.547-.132-6.625 2.601-7.055 6.122-.244 1.993.288 3.684 1.231 5.5 1.674 3.223 4.672 4.667 7.448 6.478.191.124.454.139.683.207 1.478.438 2.972.828 4.427 1.332.987.342 1.6 1.09 1.997 2.1 2.192 5.59 4.35 11.196 6.682 16.727 1.904 4.514 4.084 8.911 6.052 13.399 1.398 3.19 2.607 6.462 3.984 9.661.626 1.455 1.501 2.8 2.175 4.237a40.905 40.905 0 011.576 3.93c.094.27-.11.787-.348.983-.17.138-.714.038-.94-.144-2.306-1.854-4.247-3.97-5.515-6.732-.84-1.831-2.106-3.471-3.218-5.174-2.228-3.408-4.42-6.829-6.174-10.522-1.445-3.045-2.942-6.078-4.635-8.99-1.38-2.372-3.13-4.528-4.636-6.832-1.495-2.288-3.895-3.476-5.974-5.033-5.725-4.288-11.554-8.445-16.761-13.373a122.601 122.601 0 01-6.537-6.642c-.81-.892-1.332-2.088-1.82-3.217-.487-1.128-.287-2.285.26-3.406 1.393-2.854 2.68-5.761 4.13-8.585.858-1.67.876-3.322.331-5.01-.942-2.918-1.864-5.85-3.007-8.69-.396-.986-1.343-1.806-2.173-2.551-1.642-1.474-3.3-2.954-5.095-4.228-2.311-1.639-4.947-1.194-7.516-.72-.878.163-1.74.436-2.59.72-.768.256-1.614 1.631-1.534 2.402.014.13.073.307.17.367.84.516.483 1.162.208 1.791-.465 1.062-.945 2.117-1.385 3.1 1.38-.588 2.694-1.446 4.113-1.688 3.055-.521 6.16-.784 9.253-1.031 1.43-.115 1.86.625 1.167 1.895-1.693 3.106-3.708 5.993-6.322 8.405-1.544 1.426-3.462 2.12-5.51 2.453-.726.118-1.197.38-1.172 1.21.008.267-.086.548-.18.806-.746 2.032-.465 4 .053 6.063.474 1.89.622 3.888.7 5.847.194 4.905 1.496 9.533 3.285 14.05.912 2.305 1.834 4.61 2.884 6.852.43.918 1.174 1.704 1.84 2.495 1.573 1.866 2.177 4.144 2.712 6.424.78 3.324 1.476 6.67 2.119 10.022.274 1.429.36 2.909-1.021 4.085-.44-2.146-.856-4.254-1.323-6.35-.061-.275-.387-.49-.59-.733-.116.306-.368.631-.328.915.558 3.93 1.242 7.844 1.696 11.786.157 1.364-.18 2.799-.41 4.182-.053.327-.58.577-.89.862-.269-.317-.705-.602-.776-.96-.167-.836-.138-1.71-.226-2.565-.222-2.163-.463-4.324-.702-6.485-.06-.533-.133-1.119-.883-.987-.775.137-.643.767-.605 1.32.196 2.825.417 5.648.565 8.474.029.56-.122 1.185-.375 1.687-.21.417-.675.944-1.056.969-.397.025-.97-.403-1.218-.791-.524-.824-.93-1.685-.896-2.771.056-1.863-.106-3.731-.182-5.597-.023-.552-.129-1.103-.84-1.056-.651.043-.69.573-.67 1.084.114 2.899.292 5.796.315 8.696.011 1.326-.669 2.48-1.747 3.266-.841.611-1.956-.025-1.96-1.051-.012-2.698-.004-5.395-.004-8.092 0-.07.005-.14 0-.208-.048-.565.101-1.337-.744-1.34-.816-.004-.78.73-.78 1.323-.005 2.77-.002 5.54-.003 8.31 0 .311.102.705-.047.918-.356.51-.771 1.054-1.297 1.331-.2.106-.858-.406-1.15-.765-1.212-1.492-1.025-3.302-1.01-5.053.019-1.97.092-3.941.141-5.912.001-.035.005-.07 0-.104-.086-.52.046-1.266-.705-1.256-.237.004-.648.758-.664 1.18-.08 2.11-.02 4.224-.097 6.334-.018.478-.267 1.12-.626 1.354-.255.167-.937-.13-1.317-.386-.725-.484-1.1-1.212-1.065-2.123.107-2.764.224-5.528.276-8.293.006-.346-.28-.91-.557-1.005-.585-.201-.878.29-.916.825-.113 1.584-.18 3.17-.284 4.755-.051.79-.173 1.576-.21 2.366-.042.948-.717 1.542-1.43 1.443-.511-.07-1.206-.899-1.3-1.473-.207-1.281-.082-2.615-.106-3.927-.06-3.217.78-6.297 1.387-9.415.073-.375-.098-.798-.156-1.198l-.398-.084c-.209.372-.512.72-.61 1.118-.883 3.591-1.656 7.203-1.58 10.93.014.669-.127 1.105-.865 1.255-.722.146-.96-.29-1.257-.796-1.008-1.715-.556-3.515-.268-5.265.414-2.52 1.02-5.008 1.464-7.524.092-.521-.167-1.105-.264-1.66-.308.458-.737.876-.902 1.38-1.083 3.324-1.836 6.724-2.18 10.21-.006.067-.004.15-.04.2-.332.467-.673.928-1.01 1.39-.304-.498-.831-.979-.876-1.5-.387-4.483.473-8.8 1.914-13.025.111-.325.326-.636.353-.965.024-.294-.146-.604-.23-.908-.302.124-.746.164-.877.388-.345.586-.648 1.231-.8 1.892-.572 2.488-1.1 4.987-1.595 7.491-.142.72-.458 1.44-1.153 1.314-.455-.083-.995-.845-1.12-1.39-.576-2.519-.212-5.021.49-7.465.684-2.384 1.48-4.736 2.203-7.109.096-.314.055-.67.078-1.008l-.298-.115c-.224.26-.533.483-.66.783-1.578 3.75-3.21 7.489-3.173 11.682.006.688-.05 1.38-.135 2.064-.03.24-.235.456-.36.684-.226-.127-.581-.2-.658-.388-.398-.975-.914-1.955-1.042-2.977-.342-2.748.57-5.316 1.46-7.86.306-.878.74-1.71 1.053-2.585.11-.31.029-.687.035-1.034-.367.171-.922.246-1.068.53-.592 1.16-1.135 2.36-1.554 3.593-.509 1.495-.875 3.039-1.324 4.638-1.211-.338-1.288-1.347-1.314-2.229-.07-2.34.898-4.35 2.199-6.235.32-.462 1.169-1.008.452-1.544-.815-.61-1.056.453-1.394.904-1.777 2.373-2.734 5.005-2.377 8.023.165 1.4.976 2.228 2.514 2.384 0 .529-.022 1.073.004 1.615.08 1.66.734 3.063 1.99 4.154.276.24.732.559.99.478.955-.297 1.104.293 1.412.945.58 1.233 1.032 1.404 2.433 1.164.142.845.226 1.705.445 2.53.174.657.44 1.315.793 1.894.819 1.342 1.41 1.396 2.575.41.484.683.916 1.419 1.472 2.045.672.756 1.548.632 2.27.322.59.795 1.094 1.549 1.675 2.24.53.631 1.276.896 2.062.617.63-.224.856.041 1.25.472a12.252 12.252 0 002.336 1.955c.398.26 1.015.184 1.624.274.368.76.727 1.73 1.276 2.578 1.051 1.627 2.315 1.836 3.855.66.67-.512 1.202-.639 1.952-.154.704.454 1.835-.034 2.508-1.099.655-1.035 1.174-2.155 1.749-3.23 2.337 1.618 2.337 1.618 4.553.071 0 1.128.017 2.213-.008 3.296-.01.436-.002.93-.194 1.296-2.191 4.19-4.447 8.347-6.627 12.543-1.114 2.144-2.055 4.379-3.173 6.522-1.417 2.719-2.726 5.49-4.706 7.904-.913 1.113-1.4 2.61-1.94 3.987-1.005 2.571-2.069 5.138-2.793 7.793-.464 1.702-.47 3.557-.496 5.346-.087 5.884-.148 11.769-.1 17.653.024 2.9.453 5.799.423 8.696-.019 1.733.189 3.355.764 4.956.31.863-.167 1.508-.785 1.804-.372.179-1.272-.064-1.51-.41a21.614 21.614 0 01-1.98-3.582c-1.59-3.631-1.88-7.554-2.322-11.419-.412-3.605-.577-7.237-.884-10.854a708.662 708.662 0 00-.948-10.32c-.233-2.333.537-4.443 1.23-6.607.864-2.695 1.658-5.425 2.25-8.19.453-2.118.562-4.312.799-6.475.236-2.162.382-4.337.7-6.487.085-.58.534-1.248 1.017-1.598 1.193-.862 2.633-1.41 3.736-2.36 2.403-2.069 4.664-4.305 6.972-6.483.437-.413.693-.883.008-1.424-1.315 1.155-2.59 2.361-3.955 3.453-1.94 1.552-3.961 3.002-5.92 4.53-1.438 1.12-2.6 2.465-3.132 4.263-.997 3.372-2.023 6.735-2.99 10.116a45.308 45.308 0 00-1.555 16.937c.055.569.087 1.288-.201 1.715-1.088 1.619-.898 3.44-.971 5.201a367.53 367.53 0 00-.315 11.917c-.028 3.044.06 6.09.17 9.133.062 1.704.208 3.414.449 5.102.124.869.667 1.68.783 2.549.104.782.04 1.671-.252 2.391-.179.441-.923.89-1.418.895-.435.005-1.063-.513-1.276-.958-.381-.797-.594-1.699-.739-2.58-.77-4.69-1.556-9.38-2.218-14.088-.413-2.94-.653-5.906-.903-8.866a384.888 384.888 0 01-.712-10.014c-.105-1.79.098-3.613-.147-5.378-.546-3.923-1.238-7.829-1.966-11.723-.5-2.674-1.072-5.341-1.776-7.967-.534-1.987-1.304-3.912-2.031-5.841-.103-.272-.535-.505-.86-.593-3.19-.867-6.393-1.686-9.585-2.546-2.326-.628-4.653-1.255-6.953-1.967-.888-.275-1.272-.014-1.545.798-.426 1.272-.94 2.514-1.373 3.785-.173.51-.345 1.068-.314 1.593.197 3.31.394 6.622.723 9.92.09.909-.137 1.52-.713 2.124-4.098 4.302-8.083 8.723-12.946 12.214-.89.638-1.813 1.233-2.663 1.92-.288.232-.495.665-.575 1.04a1132.12 1132.12 0 00-2.345 11.336c-.824 4.082-.834 8.232-1.09 12.366-.16 2.58.952 4.76 1.525 7.114.317 1.302.682 2.594.978 3.901.183.81-.093 1.467-.94 1.708-.816.232-1.393-.082-1.726-.892-.64-1.56-1.339-3.095-1.966-4.66-.235-.587-.527-.85-1.206-.843-1.572.015-1.804-.233-1.77-1.81.032-1.411.253-2.824.207-4.23-.056-1.722-.299-3.438-.47-5.157-.107-1.062-.33-2.122-.332-3.184-.008-4.291.048-8.583.08-12.875.004-.623.048-1.25.004-1.87-.111-1.55.406-2.875 1.174-4.209a532.832 532.832 0 006.853-12.318c.255-.47.24-1.175.138-1.731-.235-1.283-.497-2.58-.945-3.798-.461-1.254-1.178-2.412-1.747-3.628-1.753-3.741-2.799-7.702-3.492-11.753-1.12-6.535-1.368-13.14-.978-19.736.118-1.987 1.074-3.973 1.88-5.86 1.348-3.164 2.884-6.247 4.35-9.382-.754-.081-1.285.435-1.789 1-1.491 1.673-2.468 3.65-3.325 5.69-1.645 3.911-3.126 7.883-4.032 12.039-.227 1.041-.208 2.137-.335 3.573l-3.095 1.152-.197-.347 2.753-2.744c-1.131-.714-1.986-.236-2.779.174-1.85.956-3.216 2.47-4.499 4.074-2.04 2.551-3.166 5.496-3.49 8.697-.142 1.407.215 2.865.35 4.3.02.205.065.408.098.612l-.283.14c-.231-.368-.516-.714-.686-1.108-.979-2.279-1.018-4.659-.857-7.095.33-5.032 2.782-9.157 5.532-13.137 1.507-2.181 3.237-4.208 4.862-6.308.033-.044.011-.13.036-.523l-4.535 2.355c2.109-4.303 5.537-7.628 9.141-10.78 2.707-2.367 5.7-4.336 8.913-5.973.936-.477 1.802-1.114 2.639-1.758 1.153-.889 2.487-1.113 3.864-1.17 5.351-.224 10.706-.386 16.056-.638 2.656-.125 5.35-.163 7.943-.671 2.366-.465 4.7-1.331 6.896-2.35 2.305-1.07 4.408-2.567 6.636-3.812 2.081-1.162 3.14-3.15 3.904-5.187.766-2.042 1.025-4.274 1.507-6.423.022-.099.048-.197.104-.426.365.144.709.257 1.033.411 2.613 1.24 5.331.896 8.047.532.253-.034.546-.163.718-.345 1.44-1.533 2.86-3.084 4.27-4.644.134-.15.16-.396.09-.685-1.123 1.058-2.304 2.063-3.355 3.19-1.216 1.303-2.74 1.608-4.395 1.678-1.746.074-3.455-.116-5.082-.773-.32-.13-.689-.397-.817-.695-.612-1.416-1.368-2.823-1.657-4.314-.408-2.1-1.124-4.045-2.084-5.921-.696-1.36-1.102-2.747-.833-4.29.07-.396.01-.815.01-1.278-3.455.424-5.593-1.523-7.465-3.865-1.613-2.017-3.115-4.122-4.661-6.191a4.51 4.51 0 01-.376-.621c-.54-1.042-.194-1.79.986-1.839 1.552-.064 3.114-.005 4.667.074.893.045 1.787.19 2.664.371 1.589.33 2.744 1.395 3.908 2.429.386.342.774.682 1.281.939-.53-.876-1.103-1.73-1.574-2.636-.303-.582-1.062-1.14-.347-1.933.032-.036-.036-.197-.093-.273-1.37-1.81-2.541-3.8-4.576-5.003-1.404-.83-2.805-.381-4.181.035-2.01.607-3.974 1.373-6.001 1.903-2.152.562-3.762 1.993-5.534 3.163-.422.28-.727.845-.92 1.343a751.987 751.987 0 00-3.742 9.85c-.467 1.25-.322 2.494.133 3.731 1.257 3.424 2.493 6.855 3.736 10.283.234.646.382 1.34.714 1.929.728 1.292.262 2.345-.584 3.294-2.251 2.526-4.421 5.143-6.857 7.48a36.946 36.946 0 01-6.21 4.79c-3.583 2.2-7.29 4.215-11.043 6.114-1.761.892-3.751 1.332-5.638 1.977-1.692.578-3.347 1.427-5.086 1.667-2.428.336-3.802 1.95-5.23 3.545-2.396 2.672-4.7 5.424-7.04 8.144-4.301 5.001-8.663 9.951-12.871 15.03-1.818 2.194-3.307 4.66-4.962 6.991-1.499 2.112-3.025 4.204-4.528 6.313-.76 1.068-1.49 2.159-2.25 3.228-.249.35-.55.662-.826.992l-.318-.171c.269-.705.488-1.435.817-2.111 1.222-2.51 2.589-4.956 3.7-7.514 1.74-4.008 3.24-8.122 5.006-12.12.628-1.42 1.627-2.72 2.638-3.921 2.71-3.221 5.622-6.278 8.264-9.553 3.447-4.272 6.854-8.591 9.987-13.093 1.35-1.94 3.194-2.252 5.086-2.804 4.841-1.414 9.252-3.725 13.494-6.4.735-.464 1.036-1.112.663-1.838-.723-1.405-1.509-2.79-2.418-4.078-.278-.392-1.03-.545-1.591-.625a577.75 577.75 0 00-9.644-1.263c-2.807-.347-5.621-.639-8.428-.993-1.233-.156-2.329.03-3.268.9-3.699 3.427-7.452 6.788-10.752 10.631-1.123 1.308-2.621 2.347-4.086 3.296-2.354 1.525-4.587 3.182-6.639 5.09-.328.306-.706.557-1.045.852-.913.794-1.104.775-1.902-.3 2.038-2.678 3.791-5.587 6.63-7.66 2.512-1.835 4.52-4.214 6.484-6.649 2.424-3.005 5.103-5.806 7.715-8.657 1.104-1.205 1.237-2.255.024-3.417-1.016-.972-2.172-1.813-3.335-2.613-3.527-2.427-7.094-4.793-10.629-7.209-1.197-.818-2.299-1.78-3.52-2.555-2.062-1.31-4.213-2.478-6.268-3.797-1.12-.72-2.135-1.608-3.165-2.46-.384-.317-.593-2.355-.273-2.636.418-.366.885-.54 1.496-.22 3.116 1.635 6.257 3.224 9.388 4.831 2.502 1.285 5.009 2.56 7.498 3.87.448.235.841.593 1.224.935 2.682 2.387 5.248 4.92 8.076 7.118 1.268.984 3.052 1.303 4.602 1.925 1.436.575 2.858 1.189 4.31 1.72 2.746 1.004 5.488 2.028 8.275 2.904 1.019.32 2.164.227 3.25.347 4.175.462 8.17-.364 12.076-1.735.27-.094.585-.61.564-.907-.356-5.047-1.326-9.976-3.242-14.67-.229-.563-1.1-.954-1.754-1.237-2.843-1.234-5.8-2.235-8.559-3.63-3.406-1.723-6.67-3.67-9.424-6.458-2.734-2.77-5.73-5.298-8.76-7.747-1.106-.894-2.635-1.273-3.984-1.858-2.247-.975-4.603-1.75-6.724-2.945-1.56-.88-2.954-2.17-4.186-3.497a163 163 0 01-7.316-8.452c-.778-.962-1.198-2.239-1.657-3.42-.263-.68-.27-1.582.458-1.955.755-.387 1.441-.057 2.037.692a376.66 376.66 0 007.546 9.205c2.41 2.843 5.317 5.032 8.929 6.127.806.245 1.7.305 2.544.261.3-.015.827-.598.817-.908-.104-3.31-.23-6.622-.484-9.923-.206-2.685-.417-5.3.39-7.977.601-1.994.618-4.159.973-6.234.794-4.643 1.295-9.352 3.222-13.74.32-.728.722-1.308 1.428-1.224.799.096 1.166.866 1.112 1.645a45.118 45.118 0 01-.45 3.9c-.874 5.582-1.888 11.145-2.609 16.747-.263 2.044.062 4.182.265 6.263.322 3.297.779 6.58 1.155 9.87.234 2.048 1.698 3.273 3.092 4.458a398.836 398.836 0 0011.608 9.526c.876.69 2.11.94 3.2 1.338 1.165.424 2.376.726 3.526 1.184 1.703.679 3.466.491 5.218.483.227 0 .481-.217.674-.39 1.72-1.532 3.454-3.048 5.12-4.635.435-.414.969-1.1.907-1.593-.329-2.626-.673-5.27-1.312-7.832-1.018-4.077-2.72-7.918-4.322-11.804-1.99-4.823-5.25-8.482-9.3-11.528-1.564-1.176-2.34-2.682-2.856-4.445-1.033-3.527-1.984-7.083-3.135-10.572-1.089-3.298-2.462-6.5-3.56-9.795-.393-1.18-.422-2.504-.447-3.766-.006-.35.55-.805.951-1.028.202-.112.686.118.952.314 1.29.95 1.487 2.522 2.074 3.857 1.582 3.596 3.096 7.222 4.627 10.84.497 1.174.946 2.338.817 3.686-.067.687.21 1.42.393 2.115.175.666.54 1.295.63 1.966.222 1.676 1.225 2.538 2.713 3.153 2.228.921 4.392 1.999 6.588 2.997 1.086.493 1.78 1.15 2.074 2.456.377 1.68 1.178 3.266 1.83 4.982 1.585-1.392 2.993-2.714 4.492-3.924 1.553-1.253 3.15-2.466 4.816-3.564 1.077-.709 1.658-1.653 2.143-2.791 1.122-2.632 2.424-5.189 3.488-7.843.762-1.903 1.365-3.887 1.846-5.882.723-3.002 1.284-6.043 1.901-9.07.454-2.224.758-4.486 1.915-6.508.554-.968 1.629-1.452 2.644-1.018.192.083.354.565.31.825-.45 2.58-.967 5.147-1.425 7.726a393.76 393.76 0 00-1.203 7.235c-.237 1.498-.307 3.033-.681 4.493-.23.899-.944 1.662-1.351 2.528a748.664 748.664 0 00-4.808 10.405c-.553 1.224-.964 2.511-1.466 3.759-.487 1.208-1.172 1.578-2.483 1.467-.234-.02-.5.122-.726.24-2.262 1.172-3.604 3.284-5.207 5.128-.067.077-.094.196-.17.258-1.704 1.411-1.612 3.046-.786 4.916.945 2.14 1.764 4.341 2.545 6.549.732 2.071 2.397 3.244 4.041 4.442 1.638 1.193 2.212 1.002 3.958-.034 3.194-1.894 5.285-4.833 7.463-7.65 2.527-3.27 4.882-6.687 7.107-10.171 1.723-2.697 3.13-5.597 4.678-8.405.35-.635.644-1.316 1.085-1.881.228-.291.723-.374 1.097-.551.153.376.468.768.433 1.125-.256 2.619-.895 5.112-2.094 7.504-1.341 2.675-2.44 5.473-3.592 8.24-.662 1.587-1.384 3.18-1.76 4.843-.23 1.009.074 2.17.275 3.236.277 1.467.734 2.777 2.717 2.615.798-.066 1.622.32 2.444.392 2.801.245 4.6 2.084 6.478 3.88a18.282 18.282 0 013.908 5.411c.105.219.453.501.638.469.792-.138.992.305 1.208.924.431 1.233.958 2.432 1.425 3.654.266.699.847.848 1.432.69.342-.093.705-.473.864-.814.598-1.282 1.118-2.6 1.663-3.907.211-.508.49-.82 1.125-.896.362-.044.823-.48.973-.847.612-1.5 1.24-3.013 1.637-4.578.512-2.008 1.437-3.46 3.485-4.26 2.3-.9 2.982-3.13 1.988-5.375-.643-1.45-1.186-2.947-1.707-4.446-1.015-2.922-2.091-5.83-2.941-8.8-1.005-3.51-2.264-6.979-2.284-10.712-.003-.628.086-1.214.687-1.303.328-.049.87.38 1.09.735 1.518 2.448 2.665 5.04 3.32 7.878.612 2.653 1.402 5.274 2.281 7.85.475 1.391 1.288 2.668 1.97 3.984a334.53 334.53 0 003.144 5.955c.219.402.548.796.922 1.054 1.729 1.192 3.687 1.675 5.766 1.662.263-.002.566-.21.78-.4 2.472-2.194 3.776-5.022 4.63-8.166.658-2.428.185-4.798.05-7.194-.012-.21-.16-.466-.324-.605-3.018-2.528-4.972-5.984-7.672-8.785-1.847-1.915-3.732-3.793-5.615-5.673-1.037-1.034-1.932-2.07-1.958-3.696-.078-5.022-2.09-9.622-3.325-14.386-.725-2.793-1.029-5.613-1.365-8.433zM96.689 170c3.657 1.025 7.195 2.019 10.735 3.009 2.686.751 2.659.748 2.533 3.568-.141 3.166-.21 6.337-.357 9.503-.016.348-.256.792-.527 1.001-2.34 1.798-4.714 3.547-7.068 5.322-.681.513-1.132 1.146-1.484 2.01-1.495 3.665-1.172 7.585-1.605 11.388-.409 3.593-.573 7.219-.774 10.834-.074 1.35.041 2.713.09 4.07.042 1.138-.02 2.303.199 3.406.605 3.06 1.313 6.099 2.024 9.134.263 1.12-.213 1.855-.976 1.744-.329-.048-.732-.305-.908-.594-.656-1.08-1.215-2.225-1.857-3.315-.096-.163-.434-.198-.668-.24-1.175-.205-1.79-.91-1.58-2.093.475-2.669.39-5.278-.127-7.952-.534-2.756-.686-5.59-1.078-8.378-.26-1.856-.724-3.682-.962-5.54a333.81 333.81 0 01-1.112-10.046 43.11 43.11 0 01-.186-4.493c.004-.505.207-1.127.53-1.492 1.314-1.484 2.695-2.906 4.084-4.315.44-.447.59-.842.519-1.53-.348-3.355-.544-6.727-.892-10.083-.202-1.951.737-3.427 1.447-4.918zm44.134-82.252c-.079.01-1.161.179-1.823.252.345-2.057 1.346-3.082 2.96-2.995.23 1.126-.59 1.675-.971 2.594 0 0-.087.14-.166.15zM125 88c-1.806-.038-1.552-1.686-2-3 1.515.338 1.444 1.861 2 3z"/></svg>