<svg xmlns="http://www.w3.org/2000/svg" xmlns:xlink="http://www.w3.org/1999/xlink" width="240" height="240"><defs><path id="a" d="M0 .031h178.969v239.013H0z"/></defs><g fill="none" fill-rule="evenodd" transform="translate(31)"><path fill="#84A5E9" d="M57.988 54.605c-1.84-.815-3.591.073-4.015 2.019 1.71-.05 2.998-.658 4.015-2.019M63 51.245c-.16.175-.303.366-.481.523-1.454 1.274-2.866 2.556-3.819 4.236-.289.51-1.08.9-1.73 1.093-1.287.38-2.635.589-3.96.86-.9.186-1.133-.255-.954-.947.558-2.15 2.072-3.688 4.22-4.446 2.097-.739 4.369-1.06 6.563-1.564l.161.246M84 39c-2.54 2.211-4.484 4.857-5.744 8-.945-2.95.671-6.79 5.744-8m7 8.358c-.342.312-.63.734-1.035.916-1.244.558-2.528 1.041-3.809 1.522-1.305.49-2.331.096-3.156-1.18 2.879.7 5.47.136 7.795-1.616l.205.358M48 59.995L52 57c-.42 1.3-2.791 3.102-4 2.995"/><mask id="b" fill="#fff"><use xlink:href="#a"/></mask><path fill="#84A5E9" d="M141.031 53.28c.733-.786 2.31-.796 3.92-.084 2.014.89 3.239 2.968 2.906 5.061l-6.826-4.978zm2.979 72.733c-.052.97-.192 1.964-.496 2.887-.71 2.15-2.393 2.944-4.68 2.356a1.33 1.33 0 00-.714.018c-1.93.654-2.826 2.276-2.13 4.07.93 2.395.027 4.531-1.312 6.354-1.15 1.564-2.794 2.876-4.446 4-.953.65-1.577 1.293-1.818 2.32-.895 3.805-3.143 6.548-6.97 8.082-.38.152-.7.456-1.03.708-1.398 1.068-2.71 2.261-4.207 3.18-1.49.914-3.086.957-4.682-.105-2.317-1.54-3.72-3.676-4.79-6.085-2.795 2.4-4 6.437-4.454 14.96-2.357.37-4.22-.478-5.881-2.171-.735 1.082-1.426 2.133-2.156 3.16a4.845 4.845 0 01-.936 1.004c-1.455 1.141-2.768.762-3.329-.934-1.804-5.453-3.559-10.926-6.504-15.959-.349-.596-.803-1.137-1.105-1.56-1.043.941-1.94 1.887-2.983 2.655-1.253.921-2.675.953-4.16.383-.516-.199-1.15-.177-1.728-.164-.421.01-.852.134-1.257.267-4.831 1.579-9.367-1.79-10.373-6.137-.273-1.177-.354-2.394-.53-3.646-1.444 1.585-2.96 3.157-5.557 2.894 4.15-2.937 6.3-6.99 7.256-11.77 1.153.522 1.045 1.25.98 1.978-.21 2.317-.441 4.634-.596 6.955-.122 1.83.314 3.572 1.203 5.203 1.777 3.261 4.824 4.124 8.073 2.158.873-.528 1.536-.546 2.165.066 1.855 1.806 5.238.656 5.839-2.469.12-.628.213-1.262.319-1.893l.38-.172c1.071 1.384 2.19 2.737 3.204 4.156 3.212 4.493 4.885 9.601 6.478 14.74.145.469.5.879.757 1.316.477-.3 1.043-.526 1.416-.916 1.154-1.207 1.39-2.773 1.674-4.302.118-.631.152-1.277.346-1.98 1.272 2.215 2.413 4.509 5.393 5.365.068-6.127 1.704-11.692 6.483-16.316.201.466.37.849.532 1.235.928 2.205 1.86 4.398 3.984 5.884 1.671 1.168 3.018 1.21 4.753.142 2.282-1.402 3.412-3.618 4.65-5.769.228-.396.577-1.19.847-1.156.554.057.914.915.384 2.97.555-.435 1.182-.811 1.654-1.317 1.783-1.916 2.743-4.211 3.318-6.683.085-.366.383-.781.713-.984 1.041-.641 2.21-1.105 3.21-1.795 2.766-1.908 3.958-5.545 2.82-8.654-.357-.975-.269-1.753.447-2.46.74-.73 1.503-1.445 2.319-2.096.743-.592 1.542-.814 2.61-.555 1.502.366 2.361-.198 2.547-1.688.303-2.425.397-4.873.568-7.312.03-.442.004-.888.004-1.333 1.498 2.129 1.625 4.51 1.498 6.915zm-16.91 69.65c1.146-1.233 2.303-1.424 3.447-.549 1.097.84 1.398 2.445.542 3.519-2.698 3.381-6.163 5.635-10.652 6.301-.891.132-1.793.196-2.786.3-4.035-.439-6.987-2.392-8.52-6.067-.565-1.352-.866-2.808-1.208-4.233-.066-.275.08-.83.37-.948.355-.073.549.39.69.65 1.776 3.258 4.515 5.217 8.42 5.417 3.075.158 5.875-.63 8.113-2.777a39.501 39.501 0 001.585-1.614zm-18.948-3.014c0 .281-.24.51-.537.51a.524.524 0 01-.537-.51c0-.282.24-.51.537-.51.296 0 .537.228.537.51zm9.434-4.099c-.562-1.97-2.849-3.452-4.999-3.312-2.845.185-4.353 1.946-5.14 4.717-.104.365-.185.735-.276 1.103-.132.232-.334.168-.448-.029-.962-1.488-.908-3.16-.485-4.754.698-2.636 2.373-4.638 5.341-5.003 3.067-.377 5.883.257 7.841 2.901 1.898 2.563 1.93 5.488-.065 7.51-.292.296-.606.625-.983.774-.379.15-1.009.328-1.279.13-.196-.222-.2-.937-.008-1.235.58-.896.788-1.795.5-2.802zm-9.468 18.96c-.08 1.396-.591 2.788-1.057 4.135-.124.36-.808.545-1.235.81-.205-.353-.498-.687-.6-1.066-.608-2.289-1.17-4.589-1.756-6.883-.05-.196-.172-.408-.25-.55-.125-.226-.156-.604-1.087-.402-.574.292-.461.685-.369.975.363 1.13.908 2.208 1.254 3.342.828 2.721 1.383 5.486.76 8.326-.358 1.634-1.083 3.132-2.478 4.19-.473.36-1.295.624-1.83.485-.411-.106-.781-.878-.897-1.409-.973-4.47-2.004-8.922-3.742-13.208-.28-.365-.88-.566-1.448-.182-.075.05-.194.323-.182.389.057.3.095.547.167.785 1.013 3.328 2.09 6.64 3.02 9.989.314 1.127.342 2.345.362 3.524.03 1.726-2.148 3.004-3.87 2.409-2.616-.904-4.24-2.455-4.472-5.24-.145-1.74-.601-3.458-.947-5.18-.337-1.68-.711-3.353-1.093-5.139-.268-.614-1.363-.42-1.527.101.09.682.137 1.272.248 1.852.466 2.445.971 4.884 1.412 7.333.091.509.026 1.062-.07 1.577-.152.81-.651 1.226-1.588 1.314-2.745.258-4.565-1.137-6.157-2.966-1.976-2.27-3.086-4.93-3.392-7.816-.207-1.962-1.23-3.527-2.067-5.214-1.112-2.242-2.145-4.52-3.31-6.99-.163-.009-.626-.011-1.084-.06-1.368-.142-2.796-.109-4.087-.491-4.672-1.385-9.435-2.645-13.408-5.531-4.66-3.386-8.707-7.248-9.826-13.032-.797-4.118.77-7.297 4.628-9.407 5.927-3.241 12.24-3.974 18.941-2.976 5.455.813 10.717 2.303 16.031 3.622.956.237 1.908.494 2.87.706 2.15.475 3.752 1.7 5.143 3.258 2.226 2.494 4.495 4.953 6.717 7.45 2.883 3.24 4.884 7.003 6.983 10.707.751 1.326 1.634 2.589 2.331 3.939 2.036 3.944 3.214 8.108 2.962 12.524zM39.77 138.556c-.122-.482-.563-1.134-.998-1.257-1.603-.451-2.352-1.51-2.845-2.901-1.21-3.41-.808-6.674.966-9.915-1.345-.423-2.967-.521-3.448-2.01-.44-1.359.067-2.643 1.186-3.905-.844 0-1.432.03-2.016-.006-1.373-.085-2.5-.608-3.173-1.796-.117-.206-.158-.592-.032-.743.136-.162.554-.263.773-.188 5.008 1.706 9.45.297 13.706-2.195.2-.117.43-.192.71-.203-1 1.554-2.528 2.57-4.034 3.587-.765.516-1.676.836-2.46 1.331-.78.492-1.657.98-2.162 1.683-.357.498-.448 1.514-.137 1.997.305.475 1.29.825 1.937.774 1.07-.084 2.107-.534 3.158-.83l.268.19c-.236.266-.443.562-.71.794-3.04 2.635-4.076 5.9-3.15 9.648.606 2.45 1.135 2.733 3.794 2.901 1.417 6.273 4.013 11.67 11.646 12.955-.27.86-.837 1.047-1.622.942-2.585-.347-4.898-1.222-6.745-3.04-2.257-2.222-3.841-4.79-4.612-7.813zM26.466 59.621c.713-2.727 5.939-8.178 7.868-7.97l-7.868 7.97zm26.61 18.73l-.384.152c-1.08-1.204-2.17-2.402-3.239-3.615-.69-.782-.27-1.37.463-1.81.352-.21.793-.307 1.207-.4 1.512-.342 1.96 0 1.954 1.442-.006 1.41-.001 2.82-.001 4.23zm4.493 3.764l.363-.414c1.526.873 3.09 1.694 4.54 2.67.256.171.218 1.11-.037 1.47-.195.273-1.16.43-1.418.225-1.397-1.111-2.62-2.395-3.448-3.95zm25.509 32.922c-.344.857-.646 1.732-1.041 2.567a348.088 348.088 0 01-3.028 6.204c-.601 1.205-1.048 2.488-2.264 3.35-1.01.718-1.16.718-1.568-.42-.455-1.268-.937-2.527-1.433-3.86l-.848.472c-.095-.081-.241-.145-.265-.237-.453-1.774-.981-3.537-1.283-5.334-.103-.61.299-1.34.594-1.962 1.33-2.795 3.248-5.167 5.891-7.206.447.605.82 1.181 1.268 1.699.709.818 1.419 1.644 2.22 2.376.777.71 1.078.614 1.433-.375.262-.727.415-1.489.772-2.015l3.126-2.09c.493.537 1.037 1.314 1.76 1.886 2.148 1.697 2.436 3.857 1.974 6.272-.261 1.363-.31 2.777-.71 4.098-.632 2.09-1.18 2.218-3.083.986-2.153 2.457-3.826 5.5-7.952 6.173 1.773-4.237 4.214-8.061 4.815-12.474l-.378-.11zm3.032 13.625c-1.549 1.412-2.879 2.788-4.393 3.947-.939.718-2.114 1.235-3.27 1.587-.49.149-1.201-.359-1.812-.567.217-.49.362-1.025.665-1.46.729-1.049 1.515-2.06 2.312-3.064.219-.275.53-.506.844-.689 2.01-1.176 4.128-2.203 5.653-4.013.209-.247.818-.325 1.21-.273 1.618.213 2.306-.024 2.992-1.425 1.234-2.522 2.42-5.073 1.827-7.981a1.854 1.854 0 01-.033-.489c.043-.645-.042-1.407.86-1.576.919-.173 1.12.551 1.375 1.163 1.175 2.817 2.306 5.66 2.126 8.75-.06 1.03-.408 2.084-.84 3.04-.458 1.013-1.32 1.117-2.182.358-.653-.576-1.202-1.258-1.693-1.78-.879 1.873-1.667 3.702-2.603 5.46-.309.58-.938 1.066-1.53 1.438-.801.503-1.42.145-1.482-.755-.016-.244.025-.49.024-.735-.002-.237-.024-.474-.05-.936zM39.868 64.528c-.803.539-1.356.475-2.022-.147-.742-.691-.33-1.274.125-1.825a5.79 5.79 0 011.214-1.094c2.946-1.987 5.92-3.939 8.86-5.933a8.803 8.803 0 001.602-1.408c2.323-2.595 5.423-4.145 8.55-5.59 3.243-1.499 6.602-2.774 9.924-4.117 1.951-.79 2.558-.607 4.05.868.609.6 1.339 1.09 2.031 1.644.08-1.001.116-1.822.214-2.637.173-1.436 1.484-1.894 2.535-2.55 4.874-3.037 10.266-4.909 15.876-6.264.776-.188 1.604-.248 2.408-.247 1.23.002 1.953.606 2.038 1.723.35 4.595-1.132 8.58-4.809 11.626-1.831 1.518-3.97 2.704-5.974 4.033-.383.253-.791.47-1.208 1.012.444.1.905.332 1.327.28 1.828-.226 3.645-.534 5.466-.814.285-.044.569-.095.992-.166-.2.485-.348.844-.586 1.426 1.488-.282 2.45-1.036 3.355-1.865.649-.596 1.234-1.254 1.88-1.852.587-.543 1.283-.889 2.102-.496.881.422 1.042 1.238.811 2.01-.38 1.273-.93 2.501-1.349 3.594 1.788 1.368 3.82 2.625 5.423 4.26.984 1.003 1.337 2.575 1.907 3.917.096.227-.11.818-.244.838-.469.07-1.042.1-1.44-.098-1.562-.775-3.023-1.746-4.618-2.443a10.518 10.518 0 00-3.438-.824c-2.092-.14-2.244.28-1.466 2.088.726 1.685 1.199 3.468 1.764 5.214.067.208.009.452.009.885-.612-.301-1.037-.568-1.505-.718-.278-.09-.622 0-.936.01.075.322.034.784.245.94.81.604 1.676 1.148 2.567 1.641 1.224.678 2.53 1.23 3.716 1.96.46.284.686.91 1.018 1.38-.496.217-1.01.647-1.483.611-1.312-.099-2.61-.383-3.908-.616-.291-.053-.563-.267-.847-.273-.25-.006-.505.176-.757.274.112.239.156.584.35.694.468.268 1.005.426 1.623.671l-.876 1.089c1.395 1.584 3.361 2.41 5.23 3.382.677.352 1.25.881 1.87 1.33-.623.451-1.24.91-1.872 1.349-.167.116-.381.171-.57.253.89 2.355.647 2.665-2.255 2.738 1.701 2.513 2.16 5.22 1.742 8.366-4.025-1.977-7.2-4.708-10.394-7.51.498.684.93 1.424 1.506 2.042 1.673 1.794 3.309 3.624 5.449 4.976 1.355.855 2.556 1.938 3.944 2.734 1.01.579 2.228.82 3.32 1.282.644.272 1.223.68 2.019 1.135-2.055 1.549-3.992 1.085-5.915.725l-.14.31c1.164.733 2.275 1.559 3.506 2.17 1.133.562 2.407.864 3.591 1.341.398.16.974.487.998.773.028.335-.379.9-.734 1.03-1.271.467-2.577.911-3.913 1.142-1.92.331-3.62-.405-5.372-1.526-.21 3.19.8 5.862 2.65 8.256-1.42 1.363-2.81.79-4.05.245-2.448-1.074-3.923-4.204-3.354-6.897l1.387.376 1.247-6.275c-1.726.108-1.169 1.197-1.366 1.85-.224.741-.343 1.51-.548 2.45-.467-.264-.848-.481-1.232-.696-.86-.482-1.176-.305-1.24.724-.088 1.426-.133 2.855-.244 4.28-.035.447-.221.883-.508 1.346-1.915-2.095-3.701-4.18-4.693-7.01-.699 1.11-1.201 2.042-1.84 2.88-.423.553-1.096.93-1.552 1.467-.321.377-.549.868-.672 1.343-.19.726-.253 1.482-.416 2.52-2.292-2.217-3.746-4.575-5.134-7.149-.19.288-.359.493-.474.722-.35.7-.69 1.405-1.018 2.114-1.55 3.35-4.589 4.95-8.003 6.08a9.12 9.12 0 01-2.259.422c-.42.027-.859-.225-1.29-.351.132-.401.167-.866.41-1.193 1.02-1.366 2.14-2.666 3.149-4.038 1.301-1.768 2.532-3.582 3.633-5.604-.59.17-1.171.364-1.768.503-1.667.388-3.327.837-5.018 1.105-1.806.287-1.98.094-2.19-1.515-1.42-.357-2.88-.576-4.199-1.106-.856-.344-1.587-1.078-2.215-1.768-.25-.274-.278-1.11-.04-1.323.45-.405 1.168-.766 1.768-.758 2.702.04 5.406.16 8.099.364 1.458.11 2.655-.52 3.952-.896.4-.116.855-.06 1.25-.185.372-.117.698-.367 1.085-.58l1.774.962c.682-1.492 1.43-2.868 1.951-4.317 1.446-4.028 4.615-6.486 9.105-6.767 1.503-.094 3.026.101 4.619.168-.068-.737-.67-1.31-1.444-1.443-1.756-.302-3.573-.708-5.32-.568-5.22.415-9.226 2.774-11.31 7.468-.542 1.221-.432 2.703-.66 4.347-.446-.223-.963-.35-1.277-.66-1.243-1.226-2.422-2.51-3.832-3.677l2.114 3.39c-6.087-2.397-9.232-5.615-8.065-9.967 2.1 1.428 3.12 1.384 5.435-.721a34.873 34.873 0 006.927-8.65c1.167-2.063 1.02-2.771-.88-4.202-1.714-1.29-3.525-2.476-5.376-3.584-2.294-1.374-4.91-.969-7.436-.946-.294.002-.618.27-.872.477-2.641 2.162-5.627 3.711-8.962 4.694-.814.24-1.77.433-2.013 1.505-.035.152-.896.353-1.18.202-2.097-1.118-4.208-2.233-6.19-3.523-1.56-1.016-1.854-2.208-1.17-3.47l.724.365 5.518-5.87c-1.472.844-2.796 1.516-4.013 2.331zm-.578-13.265c2.05-5.734 6.093-9.54 12.326-11.131l1.021-.26c-2.518-2.807-3.382-6.032-3.476-9.502-.006-.245-.072-.544.047-.723.228-.342.57-.616.866-.918.214.345.561.67.618 1.037.242 1.568.202 3.196.625 4.711.961 3.443 3.098 6.06 6.868 6.984 1.451.356 3.062.104 4.598.18.557.028 1.107.208 1.66.319l-.006.447c-.41.155-.807.39-1.233.453-2.865.416-5.698.638-8.55-.292-2.168-.708-4.34-.306-6.38.662-3.544 1.68-6.082 4.244-7.347 7.823-.265.753-.026 1.657-.115 2.481-.04.37-.316.715-.484 1.072-.4-.23-1.108-.425-1.142-.698-.111-.87-.186-1.837.104-2.645zm38.466-27.577c.254-.04.568-.17.753-.077.48.242 1.264.569 1.28.89.036.754-.73.539-1.275.543-2.256.017-4.03 1.155-5.645 2.435-2.946 2.336-4.687 5.29-4.546 9.06.073 1.802.257 3.575 1.231 5.197.14.234-.034.64-.063.965-.351-.062-.782-.026-1.033-.21-.32-.235-.55-.625-.721-.99-3.374-7.187 1.883-16.523 10.02-17.813zm34.118-3.318c.6.048 1.528.577 1.636 1.031.177.744-.167 1.611-.367 2.41-.025.1-.549.202-.773.125-1.326-.455-2.632-.962-4.136-1.523.992-1.34 2.105-2.165 3.64-2.043zm7.991 14.555l.374-.073c.328.39.718.745.97 1.174a60.9 60.9 0 011.708 3.16c.117.23.094.523.136.787-.316.005-.662.093-.942 0-.934-.307-1.844-.678-2.973-1.104l.727-3.944zm54.39 83.033c-1.998-3.122-4.258-5.956-7.367-8.092-2.427-1.668-4.981-3.172-7.503-4.712-.876-.534-1.73-.325-2.189.418-1.605 2.597-3.069 3.1-5.94 1.994-.584-.225-1.114-.573-1.613-.835-.61.68-1.22 1.363-1.974 2.206l-.87-1.516c.11.011.16-.085.27-.074l1.683-3.918c1.072.735 2.054 1.463 3.092 2.11 1.48.924 2.78.517 3.417-1.03.203-.494.37-1.005.503-1.519 1.05-4.024.991-8.1.583-12.185-.148-1.486-.38-2.965-.606-4.692.963.173 1.737.379 2.523.431.602.04 1.385.09 1.797-.217 1.119-.83 1.765-1.93 1.499-3.41-.617-3.43-1.269-6.84-3.079-9.938-.467-.799-.162-1.526.639-1.731 1.462-.374 1.55-.715.44-1.773-1.276-1.217-2.56-2.426-3.84-3.638-.572-.543-.927-1.125-.77-1.965.244-1.311.528-2.64.542-3.964.049-4.458-1.51-8.341-5.006-11.4-5.339-4.672-11.909-5.97-18.885-5.981-2.377-.004-2.375.114-2.974-2.136a22.063 22.063 0 00-5.924-10.175c-2.038-2-4.526-3.589-6.864-5.4.23-.466.628-1.06.829-1.71 1.267-4.086-2.394-8.31-7.235-8.386-1.75-.027-1.752-.081-1.78-1.708-.103-5.866-3.2-9.996-8.413-12.86-.215-.12-.87-.19-1.073-.014l.854 1.213c1.957 2.763 2.855 5.747 2.023 9.06-.517 2.057-2.311 3.338-4.494 3.03-1.631-.23-3 .111-4.454.77-4.598 2.086-8.944 1.576-12.931-1.456-1.007-.766-1.926-1.646-2.984-2.338-.631-.413-1.441-.76-2.19-.799-4.42-.23-10.65 3.463-10.167 9.757.032.416-.058.84-.11 1.5-1.507-.86-2.653-1.654-3.242-3.02-.984-2.287-.347-4.313 1.057-6.233.253-.347.44-.737.783-1.323-1.844.018-2.95.848-4.106 1.506-4.535 2.581-7.153 6.284-7.216 11.41-.009.746-.294 1.019-1.049 1.05-1.114.047-1.374.396-1.108 1.457.143.57.383 1.12.61 1.761-.4.054-.647.137-.882.11-3.575-.396-6.71.573-9.533 2.65a5.837 5.837 0 01-2.05.929 8.692 8.692 0 00-4.522 2.695c-.716.796-1.177 1.798-1.752 2.707l.276.176c1.491-1.003 3.042-1.772 5.035-1.3-.102.323-.139.523-.226.702-1.338 2.74-1.595 5.567-.719 8.468.256.846-.291 1.09-.918 1.331-4.848 1.874-8.786 4.787-11.501 9.089-2.515 3.984-3.39 8.178-1.67 12.657 1.124 2.924 3.863 4.888 6.834 4.89 1.111 0 1.904.535 2.562 1.202.788.8 1.547 1.687 2.052 2.66.747 1.441.81 2.94-.101 4.442-.893 1.474-2.372 2.016-3.867 2.68-1.256.56-2.605 1.21-3.497 2.169-2.328 2.503-3.683 5.528-4.094 8.848-.168 1.353-.211 2.832.194 4.11.592 1.868.237 3.209-1.307 4.44-.363.289-.586 1.044-.463 1.48.104.37.775.773 1.242.833a8.016 8.016 0 002.567-.083c2.123-.427 4.22-.962 6.166-1.416-1.445 1.804-2.976 3.717-4.509 5.628-.102.128-.216.25-.338.362-.98.893-2.161 1.656-2.907 2.7-1.765 2.468-4.46 3.381-7.213 4.2-.912.27-1.98.274-2.942.15-3.652-.473-5.975-4.36-4.846-7.99.764-2.457 2.314-4.44 4.162-6.255.432-.424.714-.984 1.066-1.482l-.236-.334c-.754-.033-1.518-.157-2.26-.083-2.495.248-4.557 1.387-6.385 2.957-1.807 1.553-2.47 3.385-1.563 5.626a105.9 105.9 0 011.585 4.137c.245.684.439 1.394.56 2.107.762 4.457 2.598 8.278 6.882 10.694.344.194.64.467.98.72-5.246 4.356-6.582 5.892-8.457 9.318-3.258 5.952-3.798 12.049-1.219 18.338 1.443 3.519 3.949 5.986 7.842 7.05 1.834.502 3.59.173 5.251-.608 1.156-.542 1.7-1.76 1.289-2.887-.742-2.03-1.84-3.874-3.576-5.304-.482-.397-1.042-.824-1.875-.283.4.222.697.372.978.544 1.056.648 1.473 1.56 1.246 2.724-.229 1.168-.808 2.048-2.115 2.359-2.75.653-5.137-.59-6.034-3.113-.981-2.762-.29-5.315 1.676-7.3 3.336-3.368 7.382-5.596 12.51-5.396 1 .04 1.806.413 2.09 1.342.275.904.409 1.852-.576 2.56-1.152.828-1.637 2.011-2.066 3.294-1.003 2.994.791 5.552 4.715 5.242 3.637-.288 6.5-1.898 8.603-4.75.587-.795 1.285-1.523 1.978-2.242.8-.832 1.881-.64 2.76-.324.904.326 1.403 1.097 1.244 2.163-.205 1.387-.98 2.472-2.02 3.325a36.72 36.72 0 01-4.432 3.137c-3 1.79-5.659 3.857-7.309 6.915-1 1.855-1.675 3.83-1.355 5.889.282 1.818 1.327 3.318 3.207 4.17.261.119.425.66.436 1.012.065 2.157-.089 4.331.135 6.471.46 4.402 4.326 9.468 9.292 9.866.909.073 1.242.604 1.243 1.42 0 .348.089.696.137 1.044.758-1.585.091-3.42-1.118-4.414-.85-.698-1.665-1.547-2.172-2.487-1.406-2.607-1.053-5.296-.024-7.947.107-.274.308-.514.551-.91.244.499.391.827.563 1.144 1.314 2.423 2.932 4.488 5.938 5.25.9.227 1.845.798 2.453 1.47 3.75 4.135 8.21 7.444 13.05 10.322 3.687 2.193 7.823 3.346 11.94 4.537.375.108.88.322 1.007.612 1.353 3.076 3.146 5.97 3.988 9.261.882 3.45 2.472 6.526 5.18 9.155 2.66 2.581 5.706 3.043 9.258 2.629.43.482.885 1.086 1.442 1.586.59.53 1.234 1.034 1.931 1.425 2.415 1.353 5.595 1.434 7.411-1.172.204-.293.667-.441 1.034-.611.756-.35 1.627-.55 2.277-1.024 1.772-1.295 3.065-3.017 3.92-4.947.6-1.356 1.65-2.036 3.01-2.722.113.764.237 1.4.298 2.04.42 4.437-.217 8.61-3.373 12.159-.61.686-.311 1.507.687 1.714.614.126 1.279.042 1.92.03.346-.007.69-.059 1.128-.099-1.494 2.292-6.886 4.29-9.339 3.918-1.39-.211-2.703.737-2.946 1.993-.21 1.085.657 2.42 1.895 2.741 1.656.43 3.36.516 4.93-.234 4.046-1.93 7.37-4.63 9.637-8.415.265-.444.655-.88 1.1-1.159 3.964-2.49 6.129-6.213 7.782-10.26.333-.815.4-1.768.398-2.656-.005-1.673-.062-3.355-.269-5.014-.134-1.075.082-1.734 1.265-1.952.25-.046.491-.15.728-.249 3.833-1.591 6.618-4.155 7.112-8.192.196-1.602 1.018-2.464 2-3.44a8.76 8.76 0 01.663-.582c2.251-1.826 3.92-4.032 4.521-6.81 1.466-6.783-.16-12.89-4.749-18.255-.632-.738-1.54-1.335-2.447-1.754-.374-.173-1.074.308-1.633.472-1.92.562-4.053-.929-3.807-2.656.324-2.27 2.503-3.893 4.819-3.31 1.546.39 3.133 1.013 4.413 1.905 3.58 2.493 5.434 6.138 6.782 10.034.294.848.372 1.76.613 2.628.168.608.398 1.142 1.331.842 2.637-.844 5.28-1.683 7.957-2.395 1.06-.281 2.22-.221 3.336-.317l.026-.382c-1.159-.185-2.312-.447-3.48-.535-1.328-.101-2.677.032-4-.093-.66-.063-1.82-.472-1.822-.73-.004-.686.431-1.413.826-2.048.194-.31.659-.534 1.05-.657 1.14-.361 2.32-.61 3.454-.984.841-.276 1.78-.52 2.428-1.05 6.817-5.563 11.213-12.237 10.507-21.172-.017-.214-.084-.424-.087-.44-1.331.58-2.57 1.242-3.892 1.663-1.792.572-3.09.05-3.93-1.418-1.178-2.062-.719-3.19.527-4.153.766-.591 1.41-1.325 2.109-1.995l-.159-.298c-.584 0-1.19.09-1.748-.024-.639-.133-1.433-.289-1.814-.713-1.122-1.252-.875-3.635.407-4.725 2.156-1.835 5.49-2.51 8.254-.464 1.449 1.072 2.295 2.513 2.945 4.086.335.81.622 1.638.93 2.458.129.353.243.365.424.046.209-.48.573-.952.6-1.44.12-2.16.327-4.337.162-6.485-.39-5.1-2.136-9.895-4.118-14.605-.77-1.83-1.74-3.585-2.757-5.66 1.212.845 2.293 1.413 3.125 2.213 2.068 1.988 4.115 4.01 5.988 6.16 1.214 1.395 2.229 2.98 3.117 4.588 1.563 2.827 2.087 5.94 2.442 9.083.042.376.407.903.752 1.023.635.222.872-.286.96-.833.141-.886.442-1.766.449-2.65.042-5.987-1.396-11.572-4.714-16.757z" mask="url(#b)"/></g></svg>