<svg width="383" height="420" xmlns="http://www.w3.org/2000/svg"><path d="M252.918 244.96c-3.328 5.027-7.02 10.6-10.534 15.911-.096.147-.462.178-.55.042-5.695-8.683-11.763-16.407-18.718-22.918-.13-.119-.16-.653-.045-.807 3.373-4.581 9.796-14.037 11.786-16.063.22-.224.692-.133.893.157 2.023 2.93 10.384 16.533 16.927 22.164.272.236.429 1.23.241 1.515M274 333c-18.982-7.886-28.56-26.147-26.793-47A245642.8 245642.8 0 00274 333m-81.992-68l-.007-.016c-.002.007-.007.011-.01.016-5.816-9.007-11.427-17.686-16.991-26.296 5.264-6.049 9.658-10.762 17.001-15.704 7.338 4.942 11.735 9.655 16.999 15.704-5.564 8.61-11.175 17.29-16.992 26.296m-.385 109c-.043-.063-.081-.127-.122-.19-.043.063-.081.127-.124.19-13.475-20.406-11.53-40.5.124-61 11.651 20.5 13.596 40.594.122 61m-17.615-208.245c-.426-25.107 17.374-50.941 17.492-50.754.115-.187 17.914 25.647 17.493 50.754-.186 11.05-6.82 23.666-13.133 31.743-1.732 2.218-2.797 3.565-4.36 3.5-1.565.065-2.63-1.282-4.362-3.5-6.311-8.077-12.942-20.692-13.13-31.743m-14.124 72.24c-6.953 6.51-13.024 14.235-18.72 22.918-.087.136-.452.105-.548-.042l-10.535-15.91c-.187-.285-.028-1.279.244-1.515 6.54-5.63 14.901-19.233 16.924-22.164.202-.29.673-.38.891-.157 1.993 2.026 8.415 11.482 11.788 16.063.118.154.082.688-.044.807M109 333c9.526-16.71 17.98-31.545 26.793-47 1.765 20.853-7.813 39.114-26.793 47M382.587 97.88c-1.92-2.268-28.13 25.788-35.735 45.178-2.577 6.573-1.943 14.67-3.684 21.913-6.819 28.36-34.876 41.307-61.574 50.682-3.855 1.353-15.142 14.874-20.818 17.73-1.978.99-2.666.634-6.048-2.811-3.987-4.061-7.542-9.086-9.12-14.313-.85-2.815 2.156-7.962 4.869-10.484 7.546-7.025 16.024-13.025 23.816-19.798 10.304-8.954 20.626-17.925 30.326-27.514 7.348-7.264 15.217-14.658 20.247-23.488 11.575-20.336 14.561-52.764-3.684-64.978-5.23-3.504-6.795-26.611-.95-45.904 2.181-7.208 5.364-13.119 7.965-20.198 1.086-3.415.477-5.238-2.608-2.724-3.703 3.422-5.285 5.35-7.492 8.659a140.707 140.707 0 00-21.605 54.38c-1.488 8.75-1.526 17.994 3.7 27.296 10.314 18.34 9.818 46.038-7.915 62.894-9.613 9.142-18.688 18.855-28.173 28.138a332.364 332.364 0 01-17.494 15.925c-1.613 1.368-4.583 2.705-6.303 2.358-2.357-2.698-4.197-8.348-3.48-11.958 3.129-15.78 11.485-28.694 31.034-29.114 10.294-12.61 11.151-27.632 11.425-42.619.087-4.808-1.46-9.805-3.09-14.423-.859-2.423-3.867-6.555-5.355-6.275-1.496.277-2.912 4.886-3.39 7.509-.884 4.879-.524 10.002-1.591 14.823-2.56 11.61-8.188 20.766-19.163 26.985-13.532 7.668-17.689 21.238-18.845 36.021-.677 8.675-1.545 17.187 3.99 24.952.86 1.203.1 4.595-1.064 6.047-4.85 6.068-10.135 11.784-14.833 17.135-5.37-5.863-10.383-11.332-15.753-17.191 9.47-17.789 21.548-38.762 17.616-60.177-4.555-24.792-21.188-67.573-26.307-67.998-5.119.425-21.754 43.206-26.31 67.998-3.931 21.415 8.149 42.388 17.62 60.177-5.373 5.859-10.384 11.328-15.758 17.191-4.693-5.351-9.98-11.067-14.833-17.135-1.161-1.452-1.92-4.844-1.06-6.047 5.533-7.765 4.662-16.277 3.988-24.952-1.154-14.783-5.318-28.353-18.845-36.022-10.975-6.218-16.602-15.374-19.165-26.984-1.063-4.82-.707-9.944-1.592-14.823-.475-2.623-1.893-7.232-3.384-7.509-1.491-.28-4.5 3.852-5.356 6.275-1.631 4.618-3.179 9.615-3.09 14.423.272 14.987 1.129 30.01 11.423 42.619 19.55.42 27.905 13.335 31.037 29.114.717 3.61-1.126 9.26-3.483 11.958-1.718.347-4.688-.99-6.3-2.358a331.483 331.483 0 01-17.497-15.925c-9.487-9.283-18.557-18.996-28.175-28.138-17.733-16.856-18.227-44.553-7.914-62.894 5.227-9.302 5.192-18.545 3.7-27.295a140.667 140.667 0 00-21.6-54.381c-2.21-3.31-3.79-5.237-7.495-8.659-3.08-2.514-3.696-.69-2.61 2.724 2.603 7.08 5.786 12.99 7.97 20.198 5.842 19.293 4.276 42.4-.953 45.904-18.245 12.214-15.261 44.642-3.68 64.978 5.026 8.83 12.895 16.224 20.24 23.488 9.703 9.589 20.027 18.56 30.329 27.514 7.792 6.773 16.27 12.773 23.816 19.798 2.715 2.522 5.718 7.669 4.869 10.484-1.576 5.227-5.129 10.252-9.117 14.313-3.385 3.445-4.073 3.8-6.05 2.81-5.68-2.855-16.964-16.376-20.819-17.73-26.695-9.374-54.755-22.321-61.571-50.681-1.742-7.244-1.108-15.34-3.687-21.913C28.543 123.668 2.332 95.612.413 97.88c-1.92 2.27 2.82 15.217 14.922 44.97 2.483 6.109 1.133 13.48 1.985 20.109 2.598 20.216 13.405 53.474 70.786 62.738 9.941 1.608 18.988 5.413 25.678 14.616.19.259.072 1.004-.169 1.107-11.642 4.931-22.316 10.72-34.977 10.336a298.074 298.074 0 00-18.955.029c-4.372.14-6.144 2.371-3.44 6.378 4.033 5.97 19.474 10.865 26.002 8 9.297-4.082 18.571-8.289 27.529-13.058 10.348-5.508 10.978-5.915 16.249 4.299 3.705 7.18 9.51 14.722 3.326 23.406-21.775 30.578-30.878 46.32-43.834 77.885-.828 2.019-1.82 6.362-.243 7.203 1.573.842 5.1-.59 7.09-1.81 6.102-3.745 12.574-7.266 17.723-12.126 11.76-11.098 34.31-23.117 35.892-76.946.061-2.002-.243-4.493.541-5.908 4.976-9.001 11.371-16.623 18.63-22.712 3.932 6.888 21.822 26.613 20.539 49.253-15.17 39.608-17.244 57.596-5.643 84.076 4.875 11.13 9.46 22.451 8.566 35.22-.08 1.144 1.597 5.06 2.891 5.055 1.295.005 2.97-3.91 2.889-5.055-.892-12.769 3.693-24.09 8.569-35.22 11.598-26.48 9.522-44.468-5.646-84.076-1.283-22.64 16.607-42.365 20.54-49.253 7.258 6.089 13.65 13.71 18.631 22.712.782 1.415.48 3.906.539 5.908 1.582 53.83 24.132 65.848 35.89 76.946 5.156 4.86 11.623 8.38 17.728 12.127 1.987 1.22 5.517 2.65 7.09 1.81 1.572-.842.585-5.185-.246-7.204-12.956-31.565-22.056-47.307-43.832-77.885-6.186-8.684-.381-16.226 3.324-23.406 5.271-10.214 5.898-9.807 16.249-4.299 8.955 4.769 18.232 8.976 27.526 13.058 6.53 2.865 21.975-2.03 26-8 2.706-4.007.937-6.237-3.433-6.378a298.057 298.057 0 00-18.957-.029c-12.661.384-23.33-5.405-34.975-10.336-.246-.103-.36-.848-.17-1.107 6.691-9.203 15.736-13.008 25.677-14.616 57.381-9.264 68.188-42.522 70.786-62.738.852-6.63-.5-14 1.985-20.108 12.102-29.754 16.842-42.701 14.922-44.971" fill="#FFF" fill-rule="evenodd"/></svg>