<svg xmlns="http://www.w3.org/2000/svg" width="60" height="60"><g fill="none" fill-rule="evenodd"><path fill="#F2F0E6" fill-opacity=".3" d="M0 0h60v60H0z"/><path fill="#C8AC3D" d="M10 4.343L15.657 10 10 15.657 4.343 10z"/><path fill="#C8AC3D" d="M10 14.343L15.657 20 10 25.657 4.343 20z"/><path fill="#C8AC3D" d="M10 24.343L15.657 30 10 35.657 4.343 30zm40 0L55.657 30 50 35.657 44.343 30z"/><path fill="#C8AC3D" d="M10 34.343L15.657 40 10 45.657 4.343 40z"/><path fill="#C8AC3D" d="M10 44.343L15.657 50 10 55.657 4.343 50zm10-40L25.657 10 20 15.657 14.343 10z"/><path fill="#C8AC3D" d="M20 44.343L25.657 50 20 55.657 14.343 50zm10-40L35.657 10 30 15.657 24.343 10z"/><path fill="#C8AC3D" d="M30 44.343L35.657 50 30 55.657 24.343 50zm10-40L45.657 10 40 15.657 34.343 10z"/><path fill="#C8AC3D" d="M40 44.343L45.657 50 40 55.657 34.343 50zm10-40L55.657 10 50 15.657 44.343 10z"/><path fill="#C8AC3D" d="M50 14.343L55.657 20 50 25.657 44.343 20zm0 20L55.657 40 50 45.657 44.343 40z"/><path fill="#C8AC3D" d="M50 44.343L55.657 50 50 55.657 44.343 50zM18 18h2v24h-2zm22 0h2v24h-2z"/><path fill="#C8AC3D" d="M42 18.031v2H18v-2zm0 21.968v2H18v-2zM0 0h3v60H0zm57 0h3v60h-3z"/><path fill="#C8AC3D" d="M59 0v3H0V0zm0 57v3H0v-3z"/></g></svg>