<svg xmlns="http://www.w3.org/2000/svg" width="90" height="90"><g fill="#F2F0E6" fill-rule="evenodd"><path fill-opacity=".3" d="M0 0h90v90H0z"/><path d="M15 6.515L23.485 15 15 23.485 6.515 15z"/><path d="M15 21.515L23.485 30 15 38.485 6.515 30z"/><path d="M14.793 37.015l8.485 8.485-8.485 8.485L6.308 45.5zm60.207 0l8.485 8.485L75 53.985 66.515 45.5z"/><path d="M15 51.515L23.485 60 15 68.485 6.515 60z"/><path d="M15 66.515L23.485 75 15 83.485 6.515 75zm15-60L38.485 15 30 23.485 21.515 15z"/><path d="M30 66.515L38.485 75 30 83.485 21.515 75zm15-60L53.485 15 45 23.485 36.515 15z"/><path d="M45 66.515L53.485 75 45 83.485 36.515 75zm15-60L68.485 15 60 23.485 51.515 15z"/><path d="M60 66.515L68.485 75 60 83.485 51.515 75zm15-60L83.485 15 75 23.485 66.515 15z"/><path d="M75 21.515L83.485 30 75 38.485 66.515 30zm0 30L83.485 60 75 68.485 66.515 60z"/><path d="M75 66.515L83.485 75 75 83.485 66.515 75zM0 0h4v90H0zm27 27h3v36h-3zm33 0h3v36h-3z"/><path d="M63 27v3H27v-3zm0 33v3H27v-3zM86 0h4v90h-4z"/><path d="M89 0v4H0V0zm1 86v4H0v-4z"/></g></svg>