<svg xmlns="http://www.w3.org/2000/svg" width="63" height="63"><g fill="none" fill-rule="evenodd"><path fill="#A300F1" d="M0 0h63v63H0z"/><path fill="#9A00DD" d="M54.515 31.5L63 23.015l8.485 8.485L63 39.985zm-63 0L0 23.015 8.485 31.5 0 39.985z"/><path stroke="#9A00DD" stroke-width="1.5" d="M11.347.207L31.5-19.946 51.653.207 31.5 20.36z"/><path stroke="#9A00DD" stroke-width="6" d="M.387.207L31.5-30.906 62.613.207 31.5 31.32zM.387 63L31.5 31.887 62.613 63 31.5 94.113z"/><path stroke="#9A00DD" stroke-width="1.5" d="M11.347 62.793L31.5 42.64l20.153 20.153L31.5 82.946z"/><path fill="#3A1D5B" fill-opacity=".5" d="M0 0h63v63H0z"/></g></svg>